<svg width="297" height="234" viewBox="0 0 297 234" fill="none" xmlns="http://www.w3.org/2000/svg">
<mask id="mask0_1187_4940" style="mask-type:alpha" maskUnits="userSpaceOnUse" x="25" y="0" width="234" height="234">
<circle opacity="0.3" cx="142.056" cy="116.798" r="116.798" fill="#D9D9D9"/>
</mask>
<g mask="url(#mask0_1187_4940)">
</g>
<g clip-path="url(#clip0_1187_4940)">
<path d="M25.4476 162.251H285.161C306.684 149.761 295.606 112.163 277.632 104.542C258.274 96.3348 289.013 67.971 259.2 58.7548C239.731 52.739 213.348 59.4609 200.464 46.5124C185.323 31.3079 160.169 12.793 113.327 27.1813C77.1959 38.2774 96.8204 59.6626 37.6992 66.1002C7.2995 69.4107 13.1685 97.7379 16.0113 103.598C18.4782 108.696 34.8105 116.785 12.1139 127.927C-21.1836 144.259 24.6681 161.958 25.4476 162.251Z" fill="#EAFCFC"/>
<path d="M96.9121 120.26C96.9121 120.26 123.524 86.55 139.343 86.6601C155.171 86.7701 172.412 108.861 194.925 127.734C220.162 148.881 187.212 149.77 185.305 149.945C183.407 150.119 117.784 147.799 116.693 146.662C115.601 145.525 98.0767 130.898 98.0767 130.898L96.9121 120.26Z" fill="#C5DDF9"/>
<path d="M233.437 121.277H234.565V108.815H233.437V121.277Z" fill="#355389"/>
<path d="M234.009 84.6334L237.677 114.29H230.341L234.009 84.6334Z" fill="#04BF68"/>
<path d="M236.347 103.533L231.111 108.027L231.313 106.394L236.182 102.222L236.347 103.533Z" fill="#04BF68"/>
<path d="M235.54 97.0316L232.34 98.1321L232.486 96.9124L235.402 95.9128L235.54 97.0316Z" fill="#04BF68"/>
<path d="M80.3048 99.3243L83.5878 125.808H77.031L80.3048 99.3243Z" fill="#04BF68"/>
<path d="M86.082 103.222L88.5763 123.387H83.5876L86.082 103.222Z" fill="#04BF68"/>
<path d="M91.0705 109.219L93.5648 129.394H88.5762L91.0705 109.219Z" fill="#04BF68"/>
<path d="M74.1792 105.239L77.453 131.723H70.8962L74.1792 105.239Z" fill="#04BF68"/>
<path d="M86.5681 113.474C114.996 118.206 157.647 160.711 190.129 160.711C222.61 160.711 229.607 150.541 241.795 152.696C253.973 154.842 270.333 160.711 270.333 160.711L28.9233 161.426C28.9233 161.426 58.1401 108.751 86.5681 113.474Z" fill="#86B1F2"/>
<path d="M189.459 101.094L192.742 127.569H186.186L189.459 101.094Z" fill="#04BF68"/>
<path d="M197.263 108.889L199.757 129.055H194.769L197.263 108.889Z" fill="#04BF68"/>
<path d="M177.602 119.655L180.096 139.821H175.108L177.602 119.655Z" fill="#04BF68"/>
<path d="M183.334 107L186.608 133.484H180.051L183.334 107Z" fill="#04BF68"/>
<path d="M215.412 113.474C186.983 118.206 144.332 160.711 111.851 160.711C79.3603 160.711 72.3725 150.541 60.1851 152.696C48.0069 154.842 31.647 160.711 31.647 160.711L273.056 161.426C273.056 161.426 243.83 108.751 215.412 113.474Z" fill="#86B1F2"/>
<path d="M205.676 153.16H206.96V138.937H205.676V153.16Z" fill="#355389"/>
<path d="M206.324 111.356L210.505 145.194H202.133L206.324 111.356Z" fill="#04BF68"/>
<path d="M208.992 132.925L203.022 138.042L203.251 136.189L208.8 131.421L208.992 132.925Z" fill="#04BF68"/>
<path d="M208.075 125.506L204.416 126.753L204.59 125.368L207.91 124.231L208.075 125.506Z" fill="#04BF68"/>
<path d="M220.178 159.223H221.398V137.774H220.178V159.223Z" fill="#355389"/>
<path d="M220.464 99.5353L226.498 142.828H214.439L220.464 99.5353Z" fill="#04BF68"/>
<path d="M226.113 140.077L215.292 136.666L215.457 135.492L225.939 138.803L226.113 140.077Z" fill="#04BF68"/>
<path d="M224.215 126.404L217.044 124.139L217.2 122.966L224.032 125.121L224.215 126.404Z" fill="#04BF68"/>
<path d="M28.9233 161.426C28.9233 161.426 60.0933 134.355 100.278 132.695C113.767 132.136 169.028 143.333 215.558 152.127C217.512 152.494 221.739 156.116 223.72 156.492C245.747 160.637 266.279 161.508 272.919 161.774L28.9233 161.426Z" fill="#96D9C9"/>
<path d="M279.457 131.65L279.503 129.321C279.503 127.587 278.182 126.193 276.559 126.193C272.46 126.193 269.131 129.724 269.131 134.08V137.262C269.131 138.656 268.389 139.866 267.306 140.481C266.316 141.031 265.72 142.141 265.72 143.324V145.002C265.72 146.818 266.527 148.514 267.857 149.651C268.636 150.321 269.14 151.339 269.14 152.485V154.86C269.14 157.492 271.149 159.619 273.625 159.619H275.037C277.513 159.619 279.521 157.492 279.521 154.86C279.118 151.54 280.099 149.624 281.236 148.523C282.905 146.909 283.886 144.644 283.886 142.251V141.911C283.886 139.38 282.786 137.014 280.952 135.401C280.117 134.704 279.457 133.548 279.457 131.65Z" fill="#4E9B87"/>
<path d="M284.07 162.38C284.07 162.38 272.625 147.184 265.427 144.855C258.228 142.526 265.014 151.779 265.014 151.779C265.014 151.779 252.24 137.812 247.554 139.069C243.262 140.224 247.554 148.881 247.554 148.881C247.554 148.881 242.712 144.085 236.843 144.085C230.974 144.085 241.382 162.031 241.382 162.031L284.07 162.38Z" fill="#96D9C9"/>
<path d="M247.554 162.04C247.554 162.04 239.731 141.123 230.047 143.544C222.198 145.506 227.782 156.025 227.296 155.548C226.819 155.071 222.61 147.927 215.797 147.927C208.983 147.927 217.888 157.565 217.888 157.565C217.888 157.565 203.38 153.035 202.243 157.794C201.298 161.747 206.571 162.04 206.571 162.04H247.554Z" fill="#04BF68"/>
<path d="M68.7594 158.134C68.8052 157.877 68.8236 157.602 68.8236 157.336C68.8236 154.31 65.9899 151.852 62.4869 151.852C58.9838 151.852 56.1501 154.31 56.1501 157.336C56.1501 157.611 56.1685 157.877 56.2143 158.134H68.7594Z" fill="#04BF68"/>
<path d="M75.9308 156.786C75.9766 156.419 75.995 156.043 75.995 155.658C75.995 151.394 73.1613 147.927 69.6582 147.927C66.1552 147.927 63.3215 151.384 63.3215 155.658C63.3215 156.043 63.3399 156.419 63.3857 156.786H75.9308Z" fill="#04BF68"/>
<path d="M73.6106 161.527C73.5647 161.27 73.5464 160.995 73.5464 160.729C73.5464 157.703 76.38 155.245 79.8831 155.245C83.3862 155.245 86.2198 157.703 86.2198 160.729C86.2198 161.004 86.2015 161.27 86.1556 161.527H73.6106Z" fill="#04BF68"/>
<path d="M63.4776 161.527C63.4225 161.16 63.395 160.784 63.395 160.399C63.395 156.135 66.9898 152.668 71.4282 152.668C75.8667 152.668 79.4615 156.125 79.4615 160.399C79.4615 160.784 79.434 161.16 79.3789 161.527H63.4776Z" fill="#04BF68"/>
<path d="M69.6398 152.668C67.4206 152.668 65.4398 153.769 64.1376 155.484C63.4682 155.328 62.7621 155.236 62.0284 155.236C58.0944 155.236 54.9031 157.694 54.9031 160.72C54.9031 160.995 54.9306 161.261 54.9764 161.518H76.6918C76.7377 161.151 76.7652 160.775 76.7652 160.39C76.7652 156.135 73.5739 152.668 69.6398 152.668Z" fill="#04BF68"/>
<path d="M42.1739 145.249C40.3123 142.333 39.9639 138.821 40.0006 136.382C40.0372 133.731 40.5324 131.751 40.5324 131.732L40.3949 131.686C40.3857 131.705 39.8997 133.704 39.8538 136.372C39.8171 138.839 40.1656 142.388 42.0547 145.341L42.1739 145.249Z" fill="#04BF68"/>
<path d="M40.9907 131.237C40.9448 131.833 40.6789 132.337 40.2937 132.649C39.9636 132.237 39.7802 131.659 39.8261 131.063C39.8719 130.467 40.1378 129.962 40.523 129.651C40.8531 130.072 41.0365 130.641 40.9907 131.237Z" fill="#04BF68"/>
<path d="M39.7252 132.622C40.0461 133.144 40.1378 133.731 40.0369 134.245C39.5509 134.126 39.0832 133.786 38.7714 133.273C38.4505 132.75 38.3588 132.163 38.4596 131.65C38.9457 131.769 39.4134 132.108 39.7252 132.622Z" fill="#04BF68"/>
<path d="M39.0191 134.254C39.5143 134.575 39.8444 135.07 39.9728 135.584C39.5051 135.712 38.9549 135.639 38.4689 135.318C37.9737 134.997 37.6435 134.502 37.5151 133.988C37.9737 133.851 38.5239 133.933 39.0191 134.254Z" fill="#04BF68"/>
<path d="M39.2391 136.519C39.6243 136.776 39.8719 137.207 39.9361 137.684C39.5326 137.858 39.074 137.84 38.6889 137.583C38.3037 137.326 38.0561 136.895 37.9919 136.418C38.3863 136.244 38.8448 136.262 39.2391 136.519Z" fill="#04BF68"/>
<path d="M40.8442 133.832C41.2843 133.603 41.7704 133.585 42.1922 133.75C42.0822 134.199 41.7887 134.612 41.3485 134.841C40.9084 135.07 40.4223 135.089 40.0005 134.923C40.1105 134.474 40.404 134.061 40.8442 133.832Z" fill="#04BF68"/>
<path d="M40.7983 135.4C41.2384 135.171 41.7245 135.153 42.1463 135.318C42.0363 135.767 41.7428 136.18 41.3026 136.409C40.8625 136.638 40.3764 136.657 39.9546 136.492C40.0646 136.033 40.3581 135.63 40.7983 135.4Z" fill="#04BF68"/>
<path d="M39.5143 139.004C39.7436 139.059 39.9361 139.215 40.0554 139.417C39.8903 139.555 39.6702 139.61 39.441 139.564C39.2117 139.509 39.0191 139.353 38.8999 139.151C39.065 139.013 39.2851 138.949 39.5143 139.004Z" fill="#04BF68"/>
<path d="M41.4034 147.303C37.1392 146.286 33.8837 143.122 31.9029 140.655C29.7571 137.977 28.6016 135.501 28.5924 135.483L28.4182 135.575C28.4274 135.602 29.592 138.087 31.7471 140.783C33.7462 143.278 37.0383 146.469 41.3576 147.496L41.4034 147.303Z" fill="#04BF68"/>
<path d="M28.6474 134.538C29.0968 135.18 29.2435 135.951 29.1243 136.648C28.4548 136.565 27.8038 136.18 27.3452 135.529C26.8867 134.878 26.7492 134.117 26.8684 133.42C27.547 133.511 28.1981 133.887 28.6474 134.538Z" fill="#04BF68"/>
<path d="M28.5373 137.189C29.2801 137.39 29.867 137.876 30.188 138.491C29.6103 138.867 28.8583 139.004 28.1155 138.803C27.3727 138.601 26.7858 138.115 26.4648 137.5C27.0426 137.124 27.7945 136.996 28.5373 137.189Z" fill="#04BF68"/>
<path d="M29.1703 139.536C29.9223 139.362 30.6651 139.518 31.2245 139.903C30.8668 140.508 30.2524 140.985 29.5004 141.159C28.7485 141.334 28.0057 141.178 27.4463 140.793C27.8039 140.187 28.4092 139.71 29.1703 139.536Z" fill="#04BF68"/>
<path d="M30.8668 141.664C31.6188 141.49 32.3616 141.645 32.921 142.031C32.5634 142.636 31.949 143.113 31.197 143.287C30.445 143.461 29.7022 143.305 29.1428 142.92C29.5005 142.315 30.1149 141.847 30.8668 141.664Z" fill="#04BF68"/>
<path d="M30.3623 138.124C30.3257 137.4 30.5641 136.712 30.9676 136.226C31.4169 136.611 31.7287 137.225 31.7654 137.959C31.8021 138.683 31.5637 139.371 31.1602 139.857C30.7016 139.463 30.399 138.848 30.3623 138.124Z" fill="#04BF68"/>
<path d="M32.132 140.325C32.0862 139.6 32.3154 138.913 32.7098 138.417C33.1683 138.793 33.4892 139.408 33.5351 140.132C33.5809 140.857 33.3517 141.545 32.9573 142.04C32.4988 141.664 32.1779 141.049 32.132 140.325Z" fill="#04BF68"/>
<path d="M33.5994 143.773C33.8746 143.59 34.1955 143.553 34.4798 143.645C34.4339 143.947 34.2597 144.231 33.9846 144.415C33.7095 144.598 33.3885 144.635 33.1042 144.543C33.1501 144.231 33.3243 143.947 33.5994 143.773Z" fill="#04BF68"/>
<path d="M52.7015 153.337L52.8849 153.328C52.619 148.45 54.4072 143.855 55.957 140.857C57.6352 137.61 59.4051 135.492 59.4234 135.464L59.2858 135.327C59.2675 135.345 57.4885 137.482 55.7919 140.747C54.2422 143.764 52.4356 148.404 52.7015 153.337Z" fill="#04BF68"/>
<path d="M60.2395 135.18C59.8176 135.886 59.2124 136.326 58.598 136.455C58.4971 135.712 58.6438 134.887 59.0657 134.171C59.4875 133.465 60.0927 133.025 60.7072 132.897C60.808 133.64 60.6613 134.474 60.2395 135.18Z" fill="#04BF68"/>
<path d="M57.9835 136.033C58.011 136.886 57.7543 137.684 57.3324 138.252C56.8647 137.775 56.553 137.042 56.5254 136.18C56.4979 135.327 56.7547 134.529 57.1765 133.961C57.6442 134.437 57.956 135.171 57.9835 136.033Z" fill="#04BF68"/>
<path d="M56.1863 137.555C56.5348 138.289 56.599 139.123 56.4156 139.857C55.8195 139.701 55.2601 139.233 54.9116 138.5C54.5632 137.766 54.499 136.932 54.6824 136.198C55.2784 136.354 55.8378 136.831 56.1863 137.555Z" fill="#04BF68"/>
<path d="M54.9484 141.306C55.1134 141.599 55.1685 141.948 55.1134 142.26C54.8567 142.214 54.6091 142.04 54.444 141.746C54.2789 141.453 54.2239 141.104 54.2789 140.792C54.5357 140.838 54.7833 141.013 54.9484 141.306Z" fill="#04BF68"/>
<path d="M54.4161 142.654C54.5812 142.947 54.6362 143.296 54.5812 143.608C54.3244 143.562 54.0768 143.388 53.9118 143.094C53.7467 142.801 53.6917 142.452 53.7467 142.14C54.0035 142.186 54.2511 142.361 54.4161 142.654Z" fill="#04BF68"/>
<path d="M58.4696 138.289C59.1023 138.298 59.6525 138.619 60.0102 139.114C59.6067 139.6 59.029 139.903 58.4054 139.894C57.7726 139.885 57.2224 139.564 56.8647 139.068C57.2591 138.582 57.8368 138.28 58.4696 138.289Z" fill="#04BF68"/>
<path d="M57.4425 140.187C58.0752 140.196 58.6254 140.517 58.9831 141.012C58.5796 141.499 58.0018 141.801 57.3783 141.792C56.7455 141.783 56.1953 141.462 55.8376 140.967C56.2411 140.481 56.8189 140.178 57.4425 140.187Z" fill="#04BF68"/>
<path d="M55.7554 142.782C56.168 142.792 56.5257 142.993 56.755 143.314C56.489 143.626 56.113 143.828 55.7095 143.819C55.2969 143.809 54.9392 143.608 54.71 143.287C54.9667 142.975 55.3427 142.782 55.7554 142.782Z" fill="#04BF68"/>
<path d="M36.7911 161.343C36.7911 160.527 41.6973 161.49 42.1099 160.38C42.5226 159.271 37.9099 159.207 37.9099 157.712C37.9099 156.217 40.2575 157.262 41.6422 157.262C43.0178 157.262 38.9186 156.621 38.9186 156.089C38.9186 155.557 40.3584 155.841 40.3584 155.273C40.3584 154.713 32.802 154.282 33.6915 152.907C34.5719 151.531 38.6344 153.31 39.7531 152.595C40.8719 151.879 33.8016 151.1 33.6182 150.045C33.4439 148.982 38.8269 150.953 39.5881 150.192C40.3492 149.431 31.0688 146.689 31.4632 144.672C31.8483 142.654 38.4968 147.248 40.1566 146.753C41.8165 146.258 31.7841 139.188 34.1134 136.437C36.4427 133.686 40.8994 145.552 42.4217 145.13C43.944 144.708 40.5143 137.629 42.0732 136.4C43.623 135.171 48.0798 146.368 48.3641 148.661C48.6484 150.962 49.2078 143.718 51.6471 142.865C54.0864 142.021 51.7204 147.349 52.1423 148.982C52.5641 150.605 54.5449 144.809 57.2135 145.24C59.8821 145.662 52.3899 150.962 53.1327 152.521C53.8755 154.08 59.662 147.331 61.4685 149.147C63.2843 150.962 54.4991 155.988 54.9851 157.363C55.4619 158.739 60.7349 156.382 62.248 157.895C63.7611 159.408 56.5899 160.371 55.6362 160.371C54.6825 160.371 51.051 161.563 54.5999 161.334C58.1305 161.105 36.7911 162.15 36.7911 161.343Z" fill="#04BF68"/>
<path d="M50.7761 162.279C50.7761 162.279 56.6818 162.6 58.4059 161.508C60.1299 160.426 58.7727 159.583 58.7727 159.583C58.7727 159.583 64.2382 159.463 64.2198 158.17C64.2107 156.877 62.881 156.951 62.881 156.951C62.881 156.951 65.6413 155.08 65.1277 153.906C64.3391 152.109 59.8456 155.236 59.8456 155.236C59.8456 155.236 61.322 153.484 60.1299 153.081C56.8561 151.962 50.7761 162.279 50.7761 162.279Z" fill="#04BF68"/>
<path d="M65.127 153.906C65.6405 155.071 62.8802 156.951 62.8802 156.951C62.8802 156.951 64.8702 156.923 64.5493 158.18C64.2283 159.436 59.2213 159.858 59.2213 159.858C59.2213 159.858 60.9728 160.197 59.2488 161.279C57.5248 162.361 50.7754 162.269 50.7754 162.269L65.127 153.906Z" fill="#96D9C9"/>
<path d="M26.5852 110.714C26.5944 110.393 27.0346 110.145 27.273 110.43C27.5023 110.714 27.4931 110.521 27.7223 111.136C28.3734 112.887 29.3363 114.584 30.4459 116.069C32.5826 118.912 34.701 120.343 37.1036 121.764C36.1132 119.536 35.4529 117.152 35.3704 114.749C35.3429 113.878 35.3521 112.97 35.7281 112.163C35.8289 111.943 36.2324 111.989 36.2783 112.236C36.48 113.474 36.1866 114.41 36.5809 116.629C37.5346 121.92 41.322 127.532 44.9809 131.466C44.284 124.809 43.9447 117.252 45.1919 110.54C45.3936 109.439 45.7237 108.394 46.0264 107.312C46.0997 107.055 46.4574 107.165 46.4115 107.422C46.3473 107.779 45.7512 112.401 45.7146 112.713C45.1368 117.821 45.2469 123.488 45.7054 128.651C48.539 124.809 50.4373 120.325 51.3268 115.638C51.5928 114.254 51.6569 112.823 52.0238 111.466C52.0788 111.283 52.3814 111.255 52.4181 111.466C52.7941 113.502 52.0421 117.106 51.4919 119.068C50.3731 123.039 48.5849 126.597 46.1456 129.77C46.0539 129.889 50.0705 160.949 49.9604 161.343C49.777 162.004 48.6216 162.471 48.4473 161.298C48.374 160.821 46.1639 141.939 45.1735 133.191C44.7975 132.98 44.5591 132.613 43.587 131.522C41.3495 129 39.1303 125.873 37.6538 122.911C36.7643 122.856 30.3451 119.738 27.163 112.631C27.0713 112.429 26.6586 111.466 26.5944 111.246C26.5302 111.053 26.5761 110.897 26.5852 110.714Z" fill="#184655"/>
<path d="M47.1911 100.645C47.1177 99.6913 47.0811 98.7101 47.0811 97.7197C47.0811 86.6235 51.7854 77.6366 57.5994 77.6366C63.4043 77.6366 68.1178 86.6327 68.1178 97.7197C68.1178 98.7101 68.0811 99.6913 68.0078 100.645H47.1911Z" fill="#04BF68"/>
<path d="M35.2971 95.7113C35.2237 94.3633 35.187 92.9877 35.187 91.5846C35.187 75.94 39.8914 63.2574 45.7054 63.2574C51.5194 63.2574 56.2146 75.9309 56.2146 91.5755C56.2146 92.9785 56.1779 94.3541 56.1046 95.7021H35.2971V95.7113Z" fill="#96D9C9"/>
<path d="M39.1396 113.062C39.213 112.108 39.2497 111.127 39.2497 110.136C39.2497 99.0401 34.5453 90.0532 28.7313 90.0532C22.9264 90.0532 18.2129 99.0493 18.2129 110.136C18.2129 111.127 18.2496 112.108 18.3229 113.062H39.1396Z" fill="#96D9C9"/>
<path d="M55.9763 113.062C56.0681 111.714 56.1139 110.338 56.1139 108.935C56.1139 93.2903 50.144 80.6077 42.7802 80.6077C35.4164 80.6077 29.4465 93.2903 29.4465 108.935C29.4465 110.338 29.4924 111.714 29.5841 113.062H55.9763Z" fill="#04BF68"/>
<path d="M45.7422 80.6077C49.4195 80.6077 52.7117 84.6335 54.8759 90.9427C55.9763 90.365 57.1501 90.0532 58.3698 90.0532C64.8991 90.0532 70.1995 99.0493 70.1995 110.136C70.1995 111.127 70.1537 112.108 70.0712 113.062H34.0317C33.9492 111.714 33.9033 110.338 33.9033 108.935C33.9125 93.2903 39.2038 80.6077 45.7422 80.6077Z" fill="#96D9C9"/>
<path d="M27.8319 156.85C27.8686 156.492 27.8869 156.116 27.8869 155.74C27.8869 151.549 25.5026 148.147 22.5589 148.147C19.6152 148.147 17.231 151.549 17.231 155.74C17.231 156.116 17.2493 156.483 17.286 156.85H27.8319Z" fill="#04BF68"/>
<path d="M33.8568 154.979C33.8935 154.466 33.9118 153.952 33.9118 153.42C33.9118 147.505 31.5275 142.718 28.5838 142.718C25.6402 142.718 23.2559 147.515 23.2559 153.42C23.2559 153.952 23.2742 154.475 23.3109 154.979H33.8568Z" fill="#04BF68"/>
<path d="M31.9037 161.536C31.867 161.178 31.8486 160.802 31.8486 160.426C31.8486 156.236 34.2329 152.833 37.1766 152.833C40.1203 152.833 42.5046 156.236 42.5046 160.426C42.5046 160.802 42.4862 161.169 42.4496 161.536H31.9037Z" fill="#04BF68"/>
<path d="M23.3842 161.536C23.3383 161.022 23.3108 160.509 23.3108 159.977C23.3108 154.062 26.337 149.275 30.0602 149.275C33.7925 149.275 36.8095 154.071 36.8095 159.977C36.8095 160.509 36.782 161.032 36.7362 161.536H23.3842Z" fill="#04BF68"/>
<path d="M28.5657 149.275C26.7041 149.275 25.0351 150.798 23.9346 153.182C23.3752 152.962 22.7792 152.843 22.1648 152.843C18.8543 152.843 16.1765 156.245 16.1765 160.436C16.1765 160.812 16.1949 161.178 16.2407 161.545H34.4897C34.5355 161.032 34.5539 160.518 34.5539 159.986C34.5539 154.071 31.8761 149.275 28.5657 149.275Z" fill="#04BF68"/>
<path opacity="0.5" d="M136.977 55.2425C136.5 53.1792 134.657 51.6477 132.456 51.6477C132.053 51.6477 131.659 51.7027 131.283 51.7944C130.191 49.4652 127.835 47.8604 125.102 47.8604C124.396 47.8604 123.708 47.9704 123.066 48.1722C121.59 45.7328 118.912 44.1005 115.858 44.1005C112.217 44.1005 109.118 46.4115 107.944 49.6394C107.11 49.1717 106.156 48.915 105.138 48.915C101.947 48.915 99.3606 51.501 99.3606 54.6923C99.3606 54.8849 99.3698 55.0683 99.3881 55.2517H136.977V55.2425Z" fill="white"/>
<path opacity="0.5" d="M188.212 91.2728C188.442 90.2824 189.331 89.5396 190.386 89.5396C190.578 89.5396 190.771 89.5671 190.945 89.6129C191.468 88.4941 192.605 87.7147 193.926 87.7147C194.265 87.7147 194.595 87.7697 194.907 87.8614C195.613 86.6876 196.906 85.8989 198.382 85.8989C200.134 85.8989 201.629 87.0085 202.188 88.5675C202.592 88.3474 203.05 88.219 203.536 88.219C205.068 88.219 206.315 89.4662 206.315 90.9976C206.315 91.0893 206.306 91.181 206.306 91.2636H188.212V91.2728Z" fill="white"/>
<path opacity="0.5" d="M156.437 78.3609C156.153 77.1412 155.061 76.2334 153.759 76.2334C153.521 76.2334 153.292 76.2609 153.062 76.3251C152.42 74.9495 151.017 73.9958 149.403 73.9958C148.981 73.9958 148.578 74.06 148.202 74.1792C147.331 72.7395 145.744 71.7674 143.938 71.7674C141.783 71.7674 139.949 73.1338 139.252 75.0504C138.757 74.7753 138.197 74.6194 137.592 74.6194C135.703 74.6194 134.171 76.1508 134.171 78.0399C134.171 78.15 134.181 78.26 134.19 78.37H156.437V78.3609Z" fill="white"/>
<path opacity="0.5" d="M199.758 64.046C199.382 62.3953 197.905 61.1757 196.145 61.1757C195.824 61.1757 195.512 61.2215 195.209 61.2949C194.338 59.4333 192.458 58.1495 190.266 58.1495C189.698 58.1495 189.157 58.232 188.643 58.3971C187.469 56.4438 185.324 55.1416 182.884 55.1416C179.977 55.1416 177.501 56.9848 176.557 59.5709C175.896 59.2041 175.126 58.9931 174.31 58.9931C171.761 58.9931 169.697 61.0565 169.697 63.6058C169.697 63.7526 169.706 63.9085 169.716 64.0552H199.758V64.046Z" fill="white"/>
<path opacity="0.5" d="M78.5901 84.1565C78.7827 83.3403 79.5163 82.7259 80.3875 82.7259C80.5525 82.7259 80.7084 82.7442 80.8552 82.7809C81.2862 81.8547 82.2307 81.2128 83.322 81.2128C83.6063 81.2128 83.8722 81.2587 84.129 81.332C84.7159 80.36 85.7796 79.7089 86.9993 79.7089C88.4482 79.7089 89.6862 80.6259 90.1539 81.9189C90.484 81.7355 90.8692 81.6255 91.2727 81.6255C92.5474 81.6255 93.5744 82.6525 93.5744 83.9272C93.5744 84.0006 93.5744 84.0739 93.5653 84.1473H78.5901V84.1565Z" fill="white"/>
<path d="M129.523 76.2233V75.5404H127.216V76.2233H129.523Z" fill="#F7CC7F"/>
<path d="M132.073 91.5612V75.4609C132.073 74.3987 131.208 73.5338 130.146 73.5338H126.793C125.73 73.5338 124.865 74.3987 124.865 75.4609V91.5612C124.865 92.6235 125.73 93.4884 126.793 93.4884H130.146C131.208 93.4884 132.073 92.6235 132.073 91.5612Z" fill="#F47458"/>
<path d="M128.477 93.4884H130.404C131.33 93.4884 132.073 93.0787 132.073 92.5779V74.4442C132.073 73.9435 131.542 73.5338 130.632 73.5338H128.477V93.4884Z" fill="#B75742"/>
<path d="M128.79 85.567V80.9236H127.941V85.567H128.79Z" fill="#1A1A1A"/>
<path d="M138.932 91.5309V79.8161C138.932 78.7387 138.052 77.8585 136.975 77.8585H133.682C132.604 77.8585 131.724 78.7387 131.724 79.8161V91.5309C131.724 92.6083 132.604 93.4884 133.682 93.4884H136.975C138.052 93.4884 138.932 92.6083 138.932 91.5309Z" fill="#355389"/>
<path d="M135.336 93.4884H137.263C138.189 93.4884 138.933 93.1697 138.933 92.7752V78.5869C138.933 78.1923 138.189 77.8737 137.263 77.8737H135.336V93.4884Z" fill="#5184CE"/>
<path d="M136.381 79.9527V79.4216H134.074V79.9527H136.381Z" fill="#F7CC7F"/>
<path d="M135.657 87.2873V83.6454H134.807V87.2873H135.657Z" fill="#1A1A1A"/>
<path d="M101.254 93.7464H100.905V97.2518H101.254V93.7464Z" fill="#13375B"/>
<path d="M142.984 93.7464H142.635V97.2518H142.984V93.7464Z" fill="#13375B"/>
<path d="M127.916 86.2804H104.122C102.953 86.2804 102.012 87.2212 102.012 88.3897V91.3639C102.012 92.5323 102.953 93.4732 104.122 93.4732H127.916C129.084 93.4732 130.025 92.5323 130.025 91.3639V88.3897C130.04 87.2212 129.084 86.2804 127.916 86.2804Z" fill="#B75742"/>
<path d="M130.04 89.8768V87.9496C130.04 87.024 129.464 86.2804 128.766 86.2804H103.303C102.605 86.2804 102.028 87.024 102.028 87.9496V89.8768H130.04Z" fill="#91342A"/>
<path d="M106.535 88.8298H105.579V91.1364H106.535V88.8298Z" fill="#F7CC7F"/>
<path d="M126.474 88.8298H125.518V91.1364H126.474V88.8298Z" fill="#F7CC7F"/>
<path d="M118.902 89.5582H112.377V90.408H118.902V89.5582Z" fill="#1A1A1A"/>
<path d="M123.727 79.0725H108.325C107.065 79.0725 106.064 80.0892 106.064 81.3335V84.0043C106.064 85.2638 107.081 86.2653 108.325 86.2653H123.727C124.987 86.2653 125.988 85.2486 125.988 84.0043V81.3487C126.003 80.0892 124.987 79.0725 123.727 79.0725Z" fill="#4E9B87"/>
<path d="M126.003 82.6841V80.7417C126.003 79.8161 125.594 79.0725 125.093 79.0725H106.959C106.459 79.0725 106.049 79.8161 106.049 80.7417V82.6689H126.003V82.6841Z" fill="#04BF68"/>
<path d="M108.735 81.637H108.052V83.9436H108.735V81.637Z" fill="#F7CC7F"/>
<path d="M141.451 93.4731L124.957 93.4579L124.683 86.1134H141.451C143.485 86.1134 145.139 87.7674 145.139 89.8008C145.139 91.8342 143.485 93.4731 141.451 93.4731Z" fill="#FAE0B2"/>
<path d="M128.477 89.8008C128.477 91.8342 126.96 93.4883 125.093 93.4883C123.227 93.4883 121.709 91.8342 121.709 89.8008C121.709 87.7674 123.227 86.1134 125.093 86.1134C126.96 86.1134 128.477 87.7674 128.477 89.8008Z" fill="#F7CC7F"/>
<path d="M131.968 93.822C131.816 93.7006 131.785 93.4881 131.892 93.3212C133.015 91.743 133.318 90.0587 132.817 88.3287C132.544 87.3576 132.059 86.6292 131.801 86.265C131.694 86.1133 131.71 85.916 131.846 85.7946C131.998 85.658 132.241 85.6732 132.377 85.8553C132.681 86.265 133.182 87.0692 133.5 88.1163C133.91 89.482 134.031 91.561 132.484 93.7613C132.362 93.913 132.135 93.9434 131.968 93.822Z" fill="#F47458"/>
<path d="M138.007 93.822C137.855 93.7006 137.825 93.4881 137.931 93.3212C139.054 91.743 139.358 90.0587 138.857 88.3287C138.584 87.3576 138.098 86.6292 137.84 86.265C137.734 86.1133 137.749 85.916 137.886 85.7946C138.037 85.658 138.28 85.6732 138.417 85.8553C138.72 86.265 139.221 87.0692 139.54 88.1163C139.949 89.482 140.071 91.561 138.523 93.7613C138.387 93.913 138.159 93.9434 138.007 93.822Z" fill="#F47458"/>
<path d="M127.885 89.133C127.703 87.9797 127.081 87.3879 126.58 87.0996C125.852 86.6747 124.896 86.614 124.061 86.9327C123.257 87.2362 122.62 87.9494 122.377 88.7688C122.164 89.4972 122.316 90.2559 122.802 90.8781C123.606 91.9251 124.85 91.7582 125.457 91.5002C126.004 91.2574 126.413 90.696 126.504 90.0738C126.58 89.5579 126.337 89.0723 125.897 88.784C125.457 88.4957 124.896 88.4957 124.471 88.784C124.152 88.9964 123.834 89.391 124.137 90.1649L124.38 90.0738C124.183 89.5882 124.259 89.2392 124.608 89.0116C124.957 88.784 125.397 88.784 125.761 89.0116C126.125 89.2392 126.307 89.6338 126.246 90.0435C126.171 90.5898 125.822 91.0753 125.351 91.2726C124.82 91.5002 123.712 91.652 122.999 90.7415C122.453 90.0283 122.483 89.3303 122.62 88.875C122.832 88.1315 123.424 87.479 124.137 87.2058C124.911 86.9023 125.776 86.963 126.444 87.3424C127.081 87.7066 127.491 88.3439 127.612 89.1937C127.779 90.2863 127.582 91.1512 127.005 91.7734C125.928 92.9418 123.652 92.9266 123.257 92.9115C123.394 93.0025 123.545 93.0936 123.697 93.1694H123.712C124.41 93.1694 126.171 93.0481 127.187 91.9403C127.84 91.2574 128.067 90.3166 127.885 89.133Z" fill="#F47458"/>
<path d="M123.47 81.637H122.787V83.9436H123.47V81.637Z" fill="#F7CC7F"/>
<path d="M118.082 82.3654H113.439V83.2152H118.082V82.3654Z" fill="#1A1A1A"/>
<path d="M111.95 78.772L104.106 93.6436L104.334 93.7639L112.178 78.8924L111.95 78.772Z" fill="#0D0D0D"/>
<path d="M120.757 78.658L120.529 78.7784L128.58 94.0392L128.808 93.9188L120.757 78.658Z" fill="#0D0D0D"/>
<path d="M137.331 77.6635L137.092 77.7609L143.615 93.7675L143.854 93.6701L137.331 77.6635Z" fill="#0D0D0D"/>
<path d="M129.511 73.3933L129.268 73.4791L136.417 93.7416L136.66 93.6558L129.511 73.3933Z" fill="#0D0D0D"/>
<path d="M144.578 93.4733H99.3723V93.9437H144.578V93.4733Z" fill="#13375B"/>
<path d="M67.5964 144.065C67.5964 144.065 102.088 149.786 102.513 149.543C102.923 149.301 107.399 130.014 107.399 130.014C107.399 130.014 78.8712 124.885 78.4159 124.885C77.9607 124.885 71.7543 129.847 71.6632 130.181C71.5722 130.514 67.5964 144.065 67.5964 144.065Z" fill="#183658"/>
<path d="M172.832 148.967C173.667 149.043 215.443 148.147 215.443 148.147L212.302 138.542C212.302 138.542 206.505 129.786 203.455 129.938C200.39 130.105 182.195 127.146 179.054 129.331C175.913 131.516 173.106 129.771 171.603 134.991C170.116 140.196 168.948 140.788 170.116 143.929C171.254 147.07 172.832 148.967 172.832 148.967Z" fill="#183658"/>
<path d="M85.017 161.729C92.8697 161.729 99.2356 155.363 99.2356 147.51C99.2356 139.657 92.8697 133.291 85.017 133.291C77.1642 133.291 70.7983 139.657 70.7983 147.51C70.7983 155.363 77.1642 161.729 85.017 161.729Z" fill="#1A1A1A"/>
<path d="M85.0167 157.404C90.4809 157.404 94.9105 152.974 94.9105 147.51C94.9105 142.046 90.4809 137.616 85.0167 137.616C79.5524 137.616 75.1228 142.046 75.1228 147.51C75.1228 152.974 79.5524 157.404 85.0167 157.404Z" fill="#8C8C8C"/>
<path d="M85.0168 154.126C88.6708 154.126 91.6329 151.164 91.6329 147.51C91.6329 143.856 88.6708 140.894 85.0168 140.894C81.3628 140.894 78.4006 143.856 78.4006 147.51C78.4006 151.164 81.3628 154.126 85.0168 154.126Z" fill="#D8D9DD"/>
<path d="M194.502 161.729C202.355 161.729 208.721 155.363 208.721 147.51C208.721 139.657 202.355 133.291 194.502 133.291C186.649 133.291 180.283 139.657 180.283 147.51C180.283 155.363 186.649 161.729 194.502 161.729Z" fill="#1A1A1A"/>
<path d="M194.502 157.404C199.967 157.404 204.396 152.974 204.396 147.51C204.396 142.046 199.967 137.616 194.502 137.616C189.038 137.616 184.609 142.046 184.609 147.51C184.609 152.974 189.038 157.404 194.502 157.404Z" fill="#8C8C8C"/>
<path d="M187.886 147.51C187.886 151.167 190.845 154.126 194.502 154.126C198.159 154.126 201.119 151.167 201.119 147.51C201.119 143.853 198.159 140.894 194.502 140.894C190.845 140.879 187.886 143.853 187.886 147.51Z" fill="#D8D9DD"/>
<path d="M227.143 133.959C225.944 126.038 222.059 124.369 210.557 122.062C197.871 119.528 181.771 111.258 181.771 111.258C181.771 111.258 154.305 97.7979 147.582 96.25C140.86 94.7022 124.304 95.1423 110.404 95.2637C96.5045 95.3699 88.3406 99.2394 81.2844 104.748C74.2282 110.256 61.9822 114.46 61.9822 114.46L59.7516 114.854C57.4602 115.264 55.8062 117.252 55.8062 119.573V139.24C55.8062 141.47 57.3084 143.413 59.4632 143.989L67.5058 146.114C68.1583 146.22 68.7653 145.765 68.8412 145.097C69.7213 137.055 76.6713 130.939 84.9718 130.939C93.7883 130.954 101.027 138.193 101.027 147.024C101.027 148.026 100.936 149.012 100.753 149.953C100.571 150.939 101.33 151.835 102.332 151.835H176.308C177.75 151.835 178.857 150.575 178.675 149.149C178.584 148.466 178.539 147.768 178.539 147.055C178.508 138.344 185.564 131.121 194.275 130.939C203.304 130.757 210.678 138.011 210.678 147.009C210.678 147.601 210.648 148.193 210.587 148.769C210.405 150.408 211.68 151.835 213.319 151.835H223.956C225.883 151.835 227.462 150.272 227.462 148.329V138.026C227.431 136.69 227.355 135.31 227.143 133.959Z" fill="#F7CC7F"/>
<path d="M56.2763 121.91H65.032C65.7756 121.91 66.2915 122.669 66.0032 123.367L65.0169 125.719C64.076 127.965 61.8909 129.422 59.463 129.422H56.2763C55.6541 129.422 55.1382 128.921 55.1382 128.284V123.049C55.1382 122.411 55.6541 121.91 56.2763 121.91Z" fill="#CF283C"/>
<path d="M213.212 125.552C218.037 126.296 223.591 130.864 223.591 130.864C224.927 132.29 223.819 134.612 221.877 134.49L212.468 133.898C210.511 133.777 208.842 132.442 208.311 130.56C207.385 127.389 208.159 124.778 213.212 125.552Z" fill="#EAFCFC"/>
<path d="M55.8514 139.983C55.2445 139.968 54.8196 140.575 55.0472 141.137C55.6693 142.73 57.0199 143.974 58.7498 144.429L67.7635 146.812C68.4919 146.933 69.1748 146.417 69.2658 145.674C69.4327 144.141 69.7969 142.684 70.3281 141.303C70.5101 140.833 70.1611 140.332 69.6755 140.317L55.8514 139.983Z" fill="#EAB054"/>
<path d="M210.739 143.686C210.056 143.671 209.525 144.263 209.616 144.945C209.707 145.704 209.768 146.463 209.768 147.252C209.768 147.92 209.738 148.557 209.662 149.21C209.464 151.031 210.876 152.624 212.697 152.624H224.502C226.642 152.624 228.387 150.879 228.387 148.739V145.689C228.387 144.824 227.689 144.111 226.824 144.096L210.739 143.686Z" fill="#EAB054"/>
<path opacity="0.5" d="M181.786 115.825C181.634 115.734 165.989 107.161 155.624 102.35C145.351 97.6007 133.894 98.1015 133.409 98.1166C132.089 98.0863 104.668 97.4945 96.2461 100.12C87.7483 102.76 76.7012 114.824 76.2308 115.34L76.1094 115.476L79.0836 129.437L79.4023 129.422C88.0518 128.936 94.668 131.243 98.5527 136.084C101.481 139.741 101.846 143.61 101.846 143.656L101.876 143.99L133.06 144.794H133.424L133.803 144.809L177.263 145.659V145.279C177.476 131.152 181.952 116.417 181.983 116.265L182.074 115.977L181.786 115.825ZM102.528 143.246C102.377 142.199 101.724 138.891 99.1445 135.644C96.3675 132.153 90.7225 128.117 79.6754 128.663L76.9136 115.704C78.1883 114.323 88.6588 103.276 96.4737 100.833C104.289 98.3898 129.706 98.7995 133.06 98.8602V144.035L102.528 143.246ZM176.505 144.885L133.788 144.05V98.8602C135.791 98.7995 146.064 98.7388 155.321 103.033C164.927 107.479 179.069 115.188 181.179 116.341C180.541 118.451 176.778 131.865 176.505 144.885Z" fill="#FEB546"/>
<path opacity="0.5" d="M55.0469 141.137C55.669 142.73 57.0196 143.974 58.7495 144.43L67.7632 146.812C68.4916 146.933 69.1745 146.417 69.2655 145.674C69.3262 145.082 69.4173 144.505 69.5387 143.944L55.0469 141.137Z" fill="#FEB546"/>
<path opacity="0.5" d="M209.738 148.102C209.722 148.481 209.692 148.845 209.647 149.225C209.449 151.046 210.861 152.639 212.682 152.639H224.487C226.627 152.639 228.372 150.894 228.372 148.754V148.117H209.738V148.102Z" fill="#FEB546"/>
<path d="M179.221 148.102C179.221 147.298 179.282 146.509 179.388 145.735C179.524 144.809 178.826 143.959 177.886 143.929L100.935 142.047C100.1 142.032 99.4935 142.821 99.7211 143.641C100.116 145.052 100.328 146.539 100.328 148.072C100.328 149.088 100.237 150.075 100.055 151.046C99.8728 152.047 100.632 152.988 101.648 152.988H176.945C178.417 152.988 179.54 151.683 179.342 150.211C179.267 149.513 179.221 148.8 179.221 148.102Z" fill="#EAB054"/>
<path opacity="0.5" d="M179.221 148.102C179.221 148.087 179.221 148.071 179.221 148.056H100.344C100.344 149.073 100.253 150.059 100.071 151.03C99.8884 152.032 100.647 152.973 101.664 152.973H176.96C178.432 152.973 179.555 151.668 179.358 150.196C179.267 149.513 179.221 148.8 179.221 148.102Z" fill="#FEB546"/>
<path d="M85.3206 117.145L127.84 117.54C127.84 117.54 130.45 117.464 130.799 115.021C131.148 112.578 131.118 102.077 131.118 102.077C131.118 102.077 130.814 99.9678 128.796 99.9374C127.567 99.9223 117.294 99.1939 107.309 100.408C99.1599 101.394 91.6181 105.127 85.8973 110.848L82.8775 113.868C82.8775 113.868 80.8441 117.1 85.3206 117.145Z" fill="#EAFCFC"/>
<path d="M135.852 103.413V114.414C135.852 115.841 136.945 117.024 138.341 117.07L171.755 118.42C172.529 118.451 173.273 118.102 173.713 117.449C174.32 116.569 174.38 115.112 171.391 113.155C166.186 109.771 152.939 102.426 148.037 101.728C144.911 101.273 140.829 101.076 138.28 101C136.96 100.954 135.852 102.047 135.852 103.413Z" fill="#EAFCFC"/>
<path d="M91.6182 112.001C91.6182 112.001 119.327 108.845 119.919 109.391C120.511 109.938 124.365 118.951 125.063 121.41L92.4225 121.106L90.1311 117.646L91.6182 112.001Z" fill="#B75742"/>
<path d="M150.374 114.49C150.374 114.49 152.924 117.51 153.652 120.757L152.848 122.062L151.239 120.363L150.374 114.49Z" fill="#263D60"/>
<path d="M153.091 106.569C152.605 103.382 149.722 101.091 146.717 102.639C146.034 102.988 145.124 103.686 144.653 104.293C143.394 105.916 143.06 107.919 141.755 109.498C142.241 109.862 142.817 110.241 143.5 110.605L144.32 109.513L144.046 110.863C146.065 111.834 148.918 112.624 152.833 112.608C153.318 110.408 153.349 108.268 153.091 106.569Z" fill="#1A1A1A"/>
<path d="M146.338 113.58C146.338 113.58 143.439 113.397 142.301 114.642C141.148 115.886 144.851 125.765 145.048 127.343C145.26 128.936 143.333 132.093 143.333 132.093C143.333 132.093 151.3 135.826 153.257 134.536C153.257 134.536 152.939 121.804 152.741 120.681C152.529 119.543 150.799 114.93 150.374 114.475C149.949 114.035 146.338 113.58 146.338 113.58Z" fill="#355389"/>
<path d="M147.294 109.71C147.294 109.71 147.279 109.801 147.248 109.938C147.112 110.636 146.626 112.942 146.292 113.579C145.882 114.353 147.688 116.797 149.418 116.493C149.934 116.402 148.978 114.247 149.024 114.02C149.115 113.58 149.236 112.988 149.357 112.366C149.433 112.017 149.494 111.667 149.555 111.334C149.737 110.393 149.889 109.634 149.889 109.634L147.294 109.71Z" fill="#F7A491"/>
<path d="M91.8306 112.532C91.8002 112.335 91.7244 112.168 91.6181 112.001L87.5058 116.129C87.5058 116.129 84.4102 121.03 91.2236 121.106L93.0901 121.121L91.8306 112.532Z" fill="#B75742"/>
<path opacity="0.3" d="M147.248 109.938C147.279 109.786 147.294 109.71 147.294 109.71L149.889 109.649C149.889 109.649 149.737 110.408 149.555 111.349C149.494 111.683 149.418 112.017 149.358 112.366C148.963 112.305 148.538 112.108 148.113 111.743C147.658 111.349 147.355 110.863 147.173 110.347C147.203 110.196 147.233 110.044 147.248 109.938Z" fill="#F47458"/>
<path d="M149.039 103.822C149.039 103.822 147.825 103.686 147.051 104.672C146.292 105.658 145.457 108.724 147.369 110.378C149.266 112.047 151.148 110.165 151.436 108.162C151.709 106.174 151.816 103.762 149.039 103.822Z" fill="#F7A491"/>
<path d="M151.983 108.147C151.755 108.587 151.376 108.83 151.133 108.693C150.89 108.557 150.875 108.086 151.103 107.646C151.33 107.206 151.71 106.963 151.953 107.1C152.195 107.237 152.211 107.707 151.983 108.147Z" fill="#F7A491"/>
<path d="M149.175 103.504C149.175 103.504 147.536 106.417 146.383 106.538C145.215 106.675 145.063 108.223 145.063 108.223C145.063 108.223 145.488 104.657 146.641 103.974C147.794 103.291 149.175 103.504 149.175 103.504Z" fill="#1A1A1A"/>
<path d="M146.687 107.282C146.778 107.798 146.596 108.268 146.262 108.344C145.929 108.405 145.579 108.041 145.488 107.525C145.397 107.009 145.58 106.538 145.913 106.463C146.247 106.402 146.596 106.766 146.687 107.282Z" fill="#F7A491"/>
<path d="M142.574 127.692C142.574 127.662 143.667 123.003 144.107 121.971C144.547 120.939 146.277 116.144 146.277 116.144L144.046 115.658C144.046 115.658 142.605 119.407 141.952 121.106C141.3 122.806 141.573 125.932 141.543 126.812C141.543 126.827 141.451 127.555 141.451 127.57C141.436 127.662 141.406 127.753 141.406 127.768C141.376 127.813 141.3 128.102 141.3 128.132C141.3 128.162 141.224 128.253 141.209 128.299C141.178 128.344 141.118 128.936 141.102 129.042C141.087 129.133 141.133 129.361 141.133 129.361L141.102 129.756C141.087 130.044 141.391 129.968 141.391 129.968C141.391 130.105 141.436 130.181 141.512 130.211C141.588 130.241 141.679 130.211 141.694 130.226C141.709 130.226 141.709 130.272 141.709 130.272C141.694 130.363 141.8 130.423 141.861 130.438C141.922 130.454 142.043 130.408 142.074 130.363C142.104 130.317 142.134 130.332 142.134 130.332C142.195 130.393 142.453 130.378 142.514 130.302C142.574 130.226 142.62 129.801 142.65 129.756C142.681 129.71 142.726 129.649 142.741 129.589C142.757 129.528 142.954 129.088 142.969 129.012C142.984 128.936 142.848 128.633 142.832 128.451C142.802 128.269 142.635 128.011 142.59 127.919C142.559 127.904 142.574 127.813 142.574 127.692Z" fill="#F48C7F"/>
<path d="M149.95 109.133L148.068 109.042C148.068 109.042 148.068 109.756 148.902 109.816C149.904 109.907 149.95 109.133 149.95 109.133Z" fill="white"/>
<path d="M139.692 110.575L139.009 115.067C139.009 115.067 141.482 120.408 142.969 119.953C144.214 119.559 143.44 114.839 143.44 114.839C143.44 114.839 142.757 112.305 142.969 111.03C143.167 109.741 139.692 110.575 139.692 110.575Z" fill="#F7A491"/>
<path d="M142.969 111.015C143.167 109.741 139.692 110.575 139.692 110.575L139.631 110.955C139.737 111.197 139.858 111.41 140.01 111.577C140.784 112.411 141.998 112.927 143.06 112.958C142.954 112.26 142.893 111.531 142.969 111.015Z" fill="#F47458"/>
<path d="M139.115 104.217C139.024 104.187 138.326 109.331 139.631 110.742C140.936 112.153 143.5 112.624 144.411 111.501C145.428 110.272 145.367 104.733 143.333 103.276C141.3 101.835 139.115 104.217 139.115 104.217Z" fill="#F7A491"/>
<path d="M142.575 100.545C140.997 100.863 139.98 101.834 139.601 102.244C138.887 102.335 137.916 102.73 136.915 104.399C135.685 106.448 136.596 108.724 138.022 109.847C139.464 110.954 139.434 112.244 139.434 112.244L139.661 111.577C139.828 111.076 139.904 110.53 139.843 110.014C139.813 109.695 139.737 109.346 139.616 109.073C139.267 108.329 140.359 107.828 140.663 107.206C140.89 106.736 140.906 105.643 141.285 104.854L141.725 104.247C141.725 104.247 142.742 103.458 143.743 103.671C144.73 103.883 144.593 100.12 142.575 100.545Z" fill="#13375B"/>
<path d="M140.587 108.117C140.602 108.739 140.314 109.255 139.95 109.27C139.586 109.27 139.282 108.769 139.282 108.147C139.282 107.525 139.555 107.009 139.92 106.994C140.284 106.979 140.587 107.48 140.587 108.117Z" fill="#F7A491"/>
<path d="M142.727 109.559L144.7 109.452C144.7 109.452 144.7 110.211 143.819 110.272C142.772 110.363 142.727 109.559 142.727 109.559Z" fill="white"/>
<path d="M138.447 114.885C138.63 114.551 138.963 114.323 139.343 114.278C140.997 114.126 145.564 114.126 147.901 118.162C148.265 118.8 148.539 119.483 148.721 120.196L149.206 122.214L137.188 121.819L137.203 120.484C137.112 118.542 137.522 116.599 138.447 114.885Z" fill="#04BF68"/>
<path d="M166.975 122.957L168.721 115.871C168.842 115.4 168.554 114.915 168.068 114.793C167.598 114.672 167.112 114.96 166.991 115.446L165.17 122.866L166.975 122.957Z" fill="#1A1A1A"/>
<path d="M162.468 122.745C162.969 122.441 163.364 122.183 163.637 122.017C163.652 122.001 164.911 121.394 164.942 121.394C165.124 121.334 165.276 121.273 165.306 121.273C165.397 121.273 165.943 121.091 165.989 121.061C166.034 121.045 166.262 121.045 166.353 121.045C166.444 121.045 167.461 120.529 167.628 120.438C167.795 120.363 168.098 120.059 168.098 120.059L168.751 119.68C169.236 119.407 168.796 118.997 168.796 118.997C169.024 118.86 169.084 118.708 169.054 118.557C169.009 118.405 168.887 118.284 168.872 118.253C168.872 118.223 168.933 118.177 168.933 118.177C169.084 118.101 169.084 117.874 169.039 117.752C168.993 117.631 168.811 117.495 168.705 117.495C168.614 117.479 168.599 117.434 168.599 117.434C168.614 117.267 168.356 116.888 168.174 116.872C167.992 116.857 167.263 117.221 167.172 117.221C167.081 117.221 166.93 117.191 166.823 117.252C166.717 117.297 165.822 117.419 165.67 117.495C165.518 117.57 165.185 118.071 164.942 118.284C164.699 118.511 164.441 119.057 164.365 119.209C164.335 119.27 164.168 119.361 163.986 119.452C163.955 119.482 158.477 121.455 155.245 122.426L162.468 122.745Z" fill="#F7A491"/>
<path d="M145.397 122.062C145.063 120.029 144.638 117.889 144.183 116.888C143.197 114.718 139.873 113.428 138.25 114.778C137.385 115.492 137.749 118.921 138.492 121.88L145.397 122.062Z" fill="#04BF68"/>
<path d="M97.1262 110.271C97.1262 110.271 93.0594 110.165 91.6785 111.091C90.2977 112.001 90.4646 121.106 90.4646 121.106L91.8 121.364C91.8 121.364 92.2855 127.631 93.3326 127.95C94.3796 128.284 101.208 126.175 102.635 124.414C104.061 122.654 99.6301 109.664 99.6301 109.664L97.1262 110.271Z" fill="#04BF68"/>
<path d="M104.365 103.048C104.714 101.956 104.956 98.6326 105.032 97.4945C104.972 97.4187 104.683 96.9331 104.714 95.9771C104.729 95.3094 104.274 94.2016 104.698 94.2775C105.123 94.3534 105.154 95.5067 105.412 95.3094C105.67 95.1121 105.791 92.6842 106.17 92.7449C106.565 92.8056 106.292 95.097 106.519 94.9149C106.747 94.7328 106.762 92.6235 107.308 92.7297C107.855 92.8208 107.066 95.2032 107.354 95.2639C107.642 95.3094 108.113 93.8071 108.553 93.883C108.993 93.9589 107.824 95.9164 107.961 95.8253C108.098 95.7191 109.038 94.9149 109.19 95.0969C109.372 95.2942 107.187 97.6008 107.187 98.1926C107.369 99.7252 107.733 102.487 107.233 104.232C106.626 106.357 105.078 111.091 105.078 111.091L101.785 110.302C101.785 110.332 103.94 104.353 104.365 103.048Z" fill="#F7A491"/>
<path d="M105.761 95.7797C105.928 95.8555 106.065 95.9618 106.171 96.0983C106.186 96.1287 106.596 96.508 106.49 97.1454C106.429 96.7508 106.338 96.3108 105.761 95.7797Z" fill="#F48C7F"/>
<path d="M84.683 112.047C84.683 112.047 84.774 111.516 84.3188 110.696C84.0305 110.165 83.9546 109.103 83.6511 109.331C83.3476 109.558 83.8029 110.499 83.5297 110.438C83.2566 110.378 82.1943 108.481 81.9364 108.693C81.6632 108.906 82.7861 110.62 82.5282 110.575C82.2854 110.529 81.4356 108.845 81.0562 109.133C80.6769 109.422 82.2247 111.015 82.0274 111.182C81.8302 111.334 80.8742 110.317 80.5707 110.545C80.2672 110.787 81.9364 111.895 81.7846 111.865C81.6329 111.834 80.601 111.561 80.5555 111.774C80.4948 112.001 82.6647 112.684 82.9075 113.17C83.1503 113.655 86.8681 118.435 87.9304 118.451C88.9926 118.451 93.7574 115.234 94.1064 114.171C94.4554 113.124 94.0154 112.017 93.3325 111.865C92.6345 111.713 88.1883 114.915 87.9759 114.869C87.7634 114.824 84.683 112.047 84.683 112.047Z" fill="#F7A491"/>
<path d="M83.5754 110.894C83.4692 111.03 83.4085 111.197 83.363 111.364C83.363 111.394 83.1961 111.941 83.6058 112.426C83.4844 112.062 83.3326 111.652 83.5754 110.894Z" fill="#F48C7F"/>
<path d="M94.714 118.663C94.714 118.663 98.9933 122.062 99.4637 122.76C99.8127 123.276 98.6443 129.133 98.6443 129.133C98.6443 129.133 96.9447 129.179 96.1708 128.587C96.1708 128.587 96.6412 124.536 96.4288 124.384C96.2315 124.232 91.5273 122.138 91.5273 122.138L91.8308 119.74L94.714 118.663Z" fill="#B75742"/>
<path d="M102.939 106.417C102.939 106.417 103.682 106.554 106.216 109.315L103.272 115.309L100.556 110.332L102.939 106.417Z" fill="#9BC1F9"/>
<path d="M98.1583 110.636C98.1583 110.636 100.086 110.211 100.768 109.877C101.451 109.543 107.718 124.323 106.14 124.839C102.832 125.932 94.2585 128.815 94.2585 128.815C94.2585 128.815 94.0157 127.965 94.3192 126.402C94.8655 123.701 94.6834 117.677 94.562 116.63C94.5013 116.007 90.8442 117.798 90.8442 117.798L89.4026 113.124C89.4026 113.124 93.5756 111.698 94.9717 111.258C95.3814 111.121 98.1583 110.636 98.1583 110.636Z" fill="#9BC1F9"/>
<path d="M105.306 119.786C104.517 117.343 99.3424 110.347 99.2969 110.271L100.147 109.695C100.329 109.968 104.562 115.916 105.382 118.496L105.306 119.786Z" fill="#04BF68"/>
<path d="M94.0614 124.308L93.5303 123.625C93.5606 123.595 97.1722 120.712 97.2784 117.51C97.3695 114.278 94.7746 111.167 94.7442 111.136L95.4119 110.575C95.5333 110.711 98.2648 113.959 98.1585 117.54C98.0371 121.136 94.2283 124.187 94.0614 124.308Z" fill="#04BF68"/>
<path d="M97.2326 100.757C97.2326 100.757 98.7652 99.6188 100.207 101.47C101.36 102.942 101.208 102.472 101.785 103.215C102.362 103.944 103.227 104.004 103.348 105.233C103.485 106.447 102.938 106.705 102.938 106.705C102.938 106.705 103.56 107.601 103.09 108.633C102.62 109.664 101.299 110.666 100.101 110.651C100.101 110.651 98.4314 111.819 96.5953 111.546C94.7591 111.273 95.3813 111.212 94.6529 111.288C93.9245 111.364 91.8456 110.575 92.0125 109.088C92.0125 109.088 90.662 107.783 91.6938 106.493C92.7409 105.203 93.3024 104.293 93.8031 102.654C94.3039 101.015 96.3828 100.469 97.2326 100.757Z" fill="#1A1A1A"/>
<path d="M99.2814 109.164C99.2814 109.164 99.4483 111.319 99.6759 111.501C99.9035 111.683 100.222 111.986 99.9794 112.533C99.7366 113.079 98.4164 112.897 97.7791 112.654C97.1721 112.426 96.7472 111.956 96.7472 111.956L96.6865 108.511L99.2814 109.164Z" fill="#F7A491"/>
<path d="M98.5224 110.15C98.0976 110.044 97.3388 109.847 96.6863 108.997L96.6711 108.511L99.2812 109.164C99.2812 109.164 99.3267 109.695 99.3874 110.241C99.0384 110.272 98.7197 110.196 98.5224 110.15Z" fill="#F48C7F"/>
<path d="M95.6089 106.63C95.6089 106.63 95.4117 105.37 94.6529 105.704C93.8942 106.038 94.6984 107.889 95.3358 107.752C95.9883 107.616 95.6089 106.63 95.6089 106.63Z" fill="#F7A491"/>
<path d="M97.9613 101.728C97.9613 101.728 99.1753 101.576 99.9036 102.456C100.632 103.337 101.588 105.977 100.769 107.95C99.934 109.922 98.5835 109.604 98.022 109.482C97.4605 109.346 96.3528 109.042 95.6244 107.358C94.8808 105.658 94.8505 101.698 97.9613 101.728Z" fill="#F7A491"/>
<path d="M122.786 121.88L125.032 132.563L121.163 132.184L119.311 122.411L122.786 121.88Z" fill="#F7A491"/>
<path d="M123.454 122.183L119.312 122.411C119.312 122.411 119.008 119.543 118.932 118.177C118.841 116.523 118.872 114.369 119.084 114.399C119.661 114.505 120.435 114.763 120.905 115.37C122.574 117.449 123.454 122.183 123.454 122.183Z" fill="#5184CE"/>
<path d="M120.723 117.813C120.83 118.314 123.455 132.29 123.455 132.29C117.248 135.704 112.499 132.791 112.499 132.791C112.499 132.791 112.742 123.398 112.423 122.093C112.21 121.228 111.452 115.552 111.998 115.37C112.711 115.127 113.789 114.763 114.684 114.627C115.458 114.505 118.447 114.308 118.993 114.46C118.993 114.444 120.314 115.704 120.723 117.813Z" fill="#EAFCFC"/>
<path d="M118.492 104.49C118.492 104.49 121.011 104.444 120.799 106.539C120.799 106.539 122.666 107.267 121.421 108.951C121.421 108.951 122.757 110.757 120.435 112.502C120.435 112.502 119.813 114.93 117.203 113.777C117.203 113.777 116.429 114.353 115.351 113.58C114.274 112.806 114.137 112.35 114.137 112.35C114.137 112.35 111.77 111.895 112.089 109.725C112.089 109.725 110.844 108.663 112.726 107.328C112.726 107.328 112.696 104.338 115.23 104.733C115.245 104.718 116.732 102.441 118.492 104.49Z" fill="#13375B"/>
<path d="M114.562 109.391C114.501 109.922 114.152 110.317 113.788 110.271C113.424 110.226 113.196 109.756 113.257 109.224C113.318 108.693 113.667 108.299 114.031 108.344C114.395 108.39 114.638 108.86 114.562 109.391Z" fill="#F7A491"/>
<path d="M120.465 111C120.237 111.485 119.797 111.759 119.463 111.607C119.129 111.455 119.038 110.939 119.266 110.454C119.494 109.968 119.934 109.695 120.268 109.847C120.601 109.998 120.677 110.514 120.465 111Z" fill="#F7A491"/>
<path d="M117.43 112.624C117.43 112.654 117.643 114.035 117.749 114.748C117.794 115.021 117.643 115.279 117.385 115.37C116.702 115.628 115.366 115.947 114.532 115.067C114.456 114.991 114.426 114.869 114.426 114.763L114.775 111.561L117.43 112.624Z" fill="#F7A491"/>
<path d="M117.642 114.004C116.914 114.308 114.82 114.05 114.653 112.73L114.774 111.576L117.43 112.624C117.43 112.639 117.582 113.58 117.642 114.004Z" fill="#F48C7F"/>
<path d="M118.113 106.114C118.113 106.114 117.005 105.871 115.958 106.523C114.896 107.176 113.181 109.756 114.623 112.001C116.049 114.247 118.492 113.14 119.342 111.364C120.192 109.589 120.556 106.948 118.113 106.114Z" fill="#F7A491"/>
<path d="M117.43 111.652L115.958 111.561C115.958 111.561 115.958 112.123 116.611 112.183C117.4 112.259 117.43 111.652 117.43 111.652Z" fill="white"/>
<path d="M119.995 107.358C119.995 107.358 118.917 106.781 118.128 106.857C117.324 106.933 114.729 108.83 114.35 108.511C113.97 108.192 114.456 106.523 114.76 106.28C115.063 106.038 116.262 105.309 116.368 105.294C116.474 105.279 117.567 105.294 117.749 105.355C117.931 105.4 119.297 106.053 119.297 106.053L119.995 107.358Z" fill="#13375B"/>
<path d="M104.426 133.549C104.441 133.489 104.501 133.489 104.562 133.473C105.108 133.443 105.655 133.398 106.201 133.307C106.292 133.291 106.383 133.261 106.459 133.231C106.611 133.17 106.762 133.155 106.914 133.2C107.005 133.215 107.081 133.215 107.172 133.215C107.445 133.2 108.234 132.912 108.629 132.836C108.72 132.821 108.796 132.745 108.811 132.654C109.16 131.061 109.904 127.51 109.979 126.341C110.071 124.854 110.89 118.117 110.89 118.117L113.652 118.8C113.652 118.8 112.681 123.777 112.438 126.19C112.256 128.041 110.526 132.032 109.979 133.185C109.722 134.035 109.084 134.08 108.948 134.096C108.857 134.111 108.781 134.156 108.735 134.217C108.644 134.338 108.523 134.445 108.401 134.536C108.31 134.596 108.234 134.687 108.174 134.778C108.067 134.945 107.961 135.127 107.87 135.31C107.81 135.431 107.734 135.476 107.627 135.446C107.521 135.416 107.461 135.34 107.461 135.203C107.461 135.006 107.521 134.824 107.612 134.657C107.703 134.49 107.688 134.399 107.582 134.262C107.521 134.187 107.445 134.111 107.369 134.035C107.278 133.974 107.203 133.929 107.081 133.944C106.884 134.005 106.687 134.05 106.489 134.08L106.322 134.126L106.231 134.141C106.216 134.141 105.928 134.187 105.822 134.187C105.746 134.187 105.609 134.202 105.503 134.202C105.397 134.217 105.184 134.171 105.184 134.171C105.093 134.171 105.002 134.141 104.926 134.08C104.896 134.05 104.866 134.02 104.881 133.974C104.896 133.929 104.926 133.913 104.972 133.898C105.033 133.883 105.382 133.838 105.366 133.822C105.26 133.822 104.942 133.822 104.85 133.822C104.714 133.822 104.593 133.777 104.501 133.686C104.456 133.656 104.41 133.61 104.426 133.549Z" fill="#F7A491"/>
<path d="M109.039 122.168L113.045 124.111C113.045 124.111 113.667 121.167 114.137 119.346C114.547 117.783 112.544 114.991 111.876 115.37C110.404 116.22 109.039 122.168 109.039 122.168Z" fill="#5184CE"/>
<path d="M136.141 116.979L171.801 118.496C171.801 118.496 168.69 128.906 168.615 129.422C168.539 129.938 156.839 136.326 153.895 136.25C150.951 136.174 144.092 133.716 142.62 133.276C141.148 132.836 137.309 129.847 137.537 128.011C137.78 126.174 136.141 116.979 136.141 116.979Z" fill="#F7CC7F"/>
<path d="M146.398 122.259H136.823C136.58 122.259 136.398 122.062 136.398 121.835V121.015C136.398 120.772 136.595 120.59 136.823 120.59H146.398C146.641 120.59 146.823 120.787 146.823 121.015V121.835C146.838 122.062 146.641 122.259 146.398 122.259Z" fill="#EAB054"/>
<path d="M150.541 102.396L155.367 104.384L155.093 103.382L153.288 102.396C153.288 102.396 151.816 102.108 151.664 102.032C151.543 101.956 150.541 102.396 150.541 102.396Z" fill="#F7CC7F"/>
<path opacity="0.6" d="M173.576 115.112L135.852 111.88V114.399C135.852 115.825 136.945 117.009 138.341 117.055L171.755 118.405C172.529 118.435 173.273 118.086 173.713 117.434C174.092 116.888 174.259 116.114 173.576 115.112Z" fill="#C5DDF9"/>
<path opacity="0.7" d="M135.852 111.88V111.531L173.44 114.93L173.576 115.112L135.852 111.88Z" fill="#C5DDF9"/>
<path opacity="0.2" d="M144.547 117.313L147.977 117.464L150.799 113.17L147.461 112.882L144.547 117.313Z" fill="white"/>
<path opacity="0.2" d="M150.647 117.57L153.394 113.382L152.119 113.276L149.342 117.51L150.647 117.57Z" fill="white"/>
<path d="M84.7591 117.115L127.84 117.54L128.219 131.197C128.219 131.197 123.181 138.512 122.574 138.436C121.967 138.36 109.099 136.296 107.946 136.372C106.793 136.448 96.7015 131.501 96.2311 131.592C95.7607 131.698 92.6044 129.999 92.6044 129.999L87.4753 126.387L82.3918 121.152L84.7591 117.115Z" fill="#F7CC7F"/>
<path d="M93.4842 121.41H83.909C83.6662 121.41 83.4841 121.212 83.4841 120.985V120.165C83.4841 119.923 83.6814 119.74 83.909 119.74H93.4842C93.727 119.74 93.9091 119.938 93.9091 120.165V120.985C93.9091 121.228 93.7118 121.41 93.4842 121.41Z" fill="#EAB054"/>
<path d="M99.8575 107.206L98.3704 107.494C98.3704 107.494 98.5069 108.056 99.1746 107.95C99.9637 107.813 99.8575 107.206 99.8575 107.206Z" fill="white"/>
<path d="M95.2293 105.78C95.2293 105.78 98.5981 104.232 98.9319 101.819C99.2658 99.4064 96.1701 101.713 96.1701 101.713L94.9106 102.912L95.2293 105.78Z" fill="#1A1A1A"/>
<path d="M137.081 116.675C137.081 116.675 137.703 117.1 138.492 117.085C138.492 117.085 137.445 117.404 137.415 117.388C137.385 117.358 136.854 116.933 136.869 116.933C136.869 116.903 137.081 116.675 137.081 116.675Z" fill="#F7CC7F"/>
<path d="M140.328 101.076L144.547 101.349C144.547 101.349 143.864 100.211 143.56 100.211C143.257 100.211 141.345 100.211 141.345 100.211L140.328 101.076Z" fill="#F7CC7F"/>
<path d="M287.014 163.508H12.5452C11.9674 163.508 11.4998 163.04 11.4998 162.462C11.4998 161.884 11.9674 161.417 12.5452 161.417H287.014C287.591 161.417 288.059 161.884 288.059 162.462C288.05 163.04 287.591 163.508 287.014 163.508Z" fill="#183658"/>
</g>
<defs>
<clipPath id="clip0_1187_4940">
<rect width="297" height="141.508" fill="white" transform="translate(0 22)"/>
</clipPath>
</defs>
</svg>
