<svg width="251" height="210" viewBox="0 0 251 210" fill="none" xmlns="http://www.w3.org/2000/svg">
<circle opacity="0.3" cx="126" cy="105" r="105" fill="#D9D9D9"/>
<path d="M182.451 126.039C182.451 126.039 188.017 124.647 192.788 124.647C195.382 124.647 197.414 124.768 198.728 124.879C199.182 124.918 199.602 125.134 199.898 125.481C200.194 125.827 200.341 126.277 200.308 126.731L200.143 129.02L182.451 126.039Z" fill="#C1D8ED"/>
<path d="M14.0232 194.765H231.352L222.407 164.152H28.137L14.0232 194.765Z" fill="#C1D8ED"/>
<g opacity="0.78">
<path d="M14.0232 194.765H231.352L222.407 164.152H28.137L14.0232 194.765Z" fill="#0D0D0D"/>
</g>
<path d="M249.986 185.895C249.53 188.149 248.869 189.999 247.985 191.239C241.889 199.722 226.252 199.458 226.252 199.458C226.352 196.424 226.141 193.387 225.622 190.396C224.017 180.876 218.591 167.352 200.74 167.983C182.655 168.623 177.931 183.111 176.743 192.204C176.419 194.608 176.31 197.035 176.417 199.458H70.0175C69.9338 197.434 69.7165 195.418 69.3672 193.423C67.7408 183.659 62.0418 165.636 42.1891 167.383C24.2565 168.968 20.9342 184.361 20.5379 193.23C20.4256 195.307 20.48 197.39 20.7006 199.458C20.7006 199.458 10.6726 197.995 5.59175 195.831C4.89323 195.535 4.26878 195.088 3.76307 194.523C3.25735 193.957 2.88285 193.287 2.66638 192.56L2.28173 191.28L0.157039 184.218C0.00794937 183.72 -0.0356338 183.196 0.0290729 182.68C0.0937796 182.165 0.265354 181.668 0.532841 181.222L2.15932 178.519C1.90462 176.989 1.81945 175.436 1.90536 173.887C2.04803 170.727 2.9112 166.592 5.98952 163.564L6.01006 163.544C7.47013 162.14 9.23683 161.097 11.1703 160.494C25.9535 155.658 54.8993 150.222 58.3537 149.095C65.2971 146.952 71.9933 144.077 78.3297 140.52C94.8381 131.233 120.501 123.061 140.846 122.324C173.351 121.145 202.652 123.126 249.042 145.387C249.042 145.387 249.113 145.895 249.225 146.799V146.809C249.539 149.36 250.18 155.059 250.607 161.623C251.134 169.893 251.307 179.524 249.986 185.895Z" fill="#DEE8F5"/>
<path d="M15.0211 166.926C15.0211 169.375 13.7613 172.839 1.90454 173.886C2.04721 170.726 2.91039 166.591 5.9887 163.563L6.00925 163.543C6.53742 163.543 15.0211 164.467 15.0211 166.926Z" fill="#F3F5FD"/>
<path d="M250.606 161.622H234.929C233.639 161.622 230.652 160.525 231.85 155.16C233.039 149.796 249.224 146.8 249.224 146.8V146.81C249.539 149.359 250.179 155.059 250.606 161.622Z" fill="#FD5D76"/>
<g opacity="0.76">
<path d="M191.22 130.481L189.708 145.833L141.09 147.855L143.376 124.7C144.423 124.67 145.479 124.649 146.546 124.649C167.932 124.649 179.912 126.875 191.22 130.481Z" fill="#0D0D0D"/>
</g>
<g opacity="0.76">
<path d="M204.307 145.254L192.044 145.742L193.476 131.233C197.931 132.772 202.237 134.714 206.339 137.035C210.179 139.209 208.716 145.082 204.307 145.254Z" fill="#0D0D0D"/>
</g>
<path d="M130.937 156.055H121.396C120.901 156.055 120.501 156.455 120.501 156.949C120.501 157.444 120.901 157.844 121.396 157.844H130.937C131.431 157.844 131.832 157.444 131.832 156.949C131.832 156.455 131.431 156.055 130.937 156.055Z" fill="#C1D8ED"/>
<path d="M20.7006 199.458C20.7006 199.458 10.6726 197.995 5.59176 195.831C4.89324 195.535 4.26879 195.088 3.76307 194.523C3.25736 193.957 2.88286 193.287 2.66639 192.56L2.28174 191.28C5.80748 191.96 11.5883 192.773 20.5393 193.23C20.4266 195.307 20.4805 197.39 20.7006 199.458Z" fill="#C1D8ED"/>
<path d="M176.742 192.205C176.419 194.609 176.31 197.036 176.417 199.459H70.0175C69.9337 197.435 69.7165 195.419 69.3672 193.424C103.729 193.118 147.308 192.56 176.742 192.205Z" fill="#C1D8ED"/>
<path d="M249.986 185.895C249.529 188.149 248.869 189.999 247.985 191.239C241.888 199.722 226.252 199.458 226.252 199.458C226.352 196.424 226.141 193.387 225.622 190.396C235.132 189.481 244.967 188.059 249.986 185.895Z" fill="#C1D8ED"/>
<path d="M137.152 195.385L136.33 195.357L139.488 147.473L140.311 147.501L137.152 195.385Z" fill="#C1D8ED"/>
<path d="M76.0393 150.558H75.2146V195.831H76.0393V150.558Z" fill="#C1D8ED"/>
<g opacity="0.76">
<path d="M141.038 124.792L138.752 147.948L76.0121 150.539C75.7724 150.55 75.5355 150.483 75.3376 150.347C75.1397 150.211 74.9916 150.014 74.9157 149.787C74.8398 149.559 74.8403 149.313 74.9172 149.085C74.994 148.858 75.143 148.662 75.3415 148.527C84.1707 142.603 108.18 126.468 141.038 124.792Z" fill="#0D0D0D"/>
</g>
<path d="M73.9569 148.899H78.9259C80.3757 148.899 81.7662 149.475 82.7914 150.5C83.8166 151.525 84.3926 152.916 84.3926 154.366C84.3926 154.814 84.2146 155.243 83.8977 155.56C83.5809 155.877 83.1511 156.055 82.703 156.055H73.9569C73.5088 156.055 73.079 155.877 72.7622 155.56C72.4453 155.243 72.2673 154.814 72.2673 154.366V150.588C72.2673 150.14 72.4453 149.711 72.7622 149.394C73.079 149.077 73.5088 148.899 73.9569 148.899Z" fill="#C1D8ED"/>
<path d="M44.7245 209.764C55.7833 209.764 64.7481 200.799 64.7481 189.741C64.7481 178.682 55.7833 169.717 44.7245 169.717C33.6658 169.717 24.7009 178.682 24.7009 189.741C24.7009 200.799 33.6658 209.764 44.7245 209.764Z" fill="#0D0D0D"/>
<path d="M44.7246 176.928C47.2586 176.928 49.7356 177.68 51.8426 179.088C53.9495 180.495 55.5916 182.496 56.5614 184.837C57.5311 187.179 57.7848 189.755 57.2904 192.24C56.7961 194.725 55.5759 197.008 53.7841 198.8C51.9923 200.592 49.7094 201.812 47.2241 202.306C44.7388 202.801 42.1627 202.547 39.8216 201.577C37.4805 200.607 35.4795 198.965 34.0717 196.858C32.6639 194.751 31.9125 192.274 31.9125 189.74C31.9164 186.344 33.2674 183.087 35.6693 180.685C38.0712 178.283 41.3278 176.932 44.7246 176.928ZM44.7246 175.582C41.9242 175.582 39.1867 176.412 36.8583 177.968C34.5299 179.524 32.7151 181.735 31.6434 184.322C30.5718 186.91 30.2914 189.756 30.8378 192.503C31.3841 195.25 32.7326 197.772 34.7128 199.753C36.693 201.733 39.2159 203.081 41.9625 203.628C44.7091 204.174 47.5559 203.893 50.1431 202.822C52.7303 201.75 54.9416 199.935 56.4974 197.607C58.0532 195.278 58.8835 192.541 58.8834 189.74C58.8834 187.881 58.5172 186.04 57.8057 184.322C57.0941 182.604 56.0512 181.043 54.7364 179.729C53.4216 178.414 51.8607 177.371 50.1429 176.659C48.4251 175.948 46.5839 175.582 44.7246 175.582Z" fill="#F3F5FD"/>
<path d="M44.7244 193.114C46.5875 193.114 48.0978 191.603 48.0978 189.74C48.0978 187.877 46.5875 186.367 44.7244 186.367C42.8614 186.367 41.3511 187.877 41.3511 189.74C41.3511 191.603 42.8614 193.114 44.7244 193.114Z" fill="#F3F5FD"/>
<path d="M48.6326 176.255L45.3979 189.74H44.0514L40.8164 176.255H48.6326Z" fill="#F3F5FD"/>
<path d="M40.8164 203.226L44.0514 189.74H45.3979L48.6326 203.226H40.8164Z" fill="#F3F5FD"/>
<path d="M54.2856 200.023L44.3787 190.318L45.0706 189.163L58.3018 193.317L54.2856 200.023Z" fill="#F3F5FD"/>
<path d="M35.1637 179.459L45.0706 189.163L44.3787 190.318L31.1475 186.164L35.1637 179.459Z" fill="#F3F5FD"/>
<path d="M31.1475 193.317L44.3787 189.163L45.0706 190.318L35.1637 200.023L31.1475 193.317Z" fill="#F3F5FD"/>
<path d="M58.3018 186.164L45.0706 190.318L44.3787 189.163L54.2856 179.459L58.3018 186.164Z" fill="#F3F5FD"/>
<path d="M44.7245 191.473C45.6813 191.473 46.4569 190.697 46.4569 189.741C46.4569 188.784 45.6813 188.008 44.7245 188.008C43.7678 188.008 42.9922 188.784 42.9922 189.741C42.9922 190.697 43.7678 191.473 44.7245 191.473Z" fill="#0D0D0D"/>
<path d="M201.182 209.764C212.241 209.764 221.206 200.799 221.206 189.741C221.206 178.682 212.241 169.717 201.182 169.717C190.123 169.717 181.158 178.682 181.158 189.741C181.158 200.799 190.123 209.764 201.182 209.764Z" fill="#0D0D0D"/>
<path d="M201.182 176.928C203.716 176.928 206.193 177.68 208.3 179.088C210.407 180.495 212.049 182.496 213.019 184.837C213.989 187.179 214.242 189.755 213.748 192.24C213.254 194.725 212.033 197.008 210.242 198.8C208.45 200.592 206.167 201.812 203.682 202.306C201.196 202.801 198.62 202.547 196.279 201.577C193.938 200.607 191.937 198.965 190.529 196.858C189.121 194.751 188.37 192.274 188.37 189.74C188.374 186.344 189.725 183.087 192.127 180.685C194.529 178.283 197.785 176.932 201.182 176.928ZM201.182 175.582C198.382 175.582 195.644 176.412 193.316 177.968C190.987 179.524 189.173 181.735 188.101 184.322C187.029 186.91 186.749 189.756 187.295 192.503C187.842 195.25 189.19 197.772 191.17 199.753C193.151 201.733 195.673 203.081 198.42 203.628C201.167 204.174 204.013 203.893 206.601 202.822C209.188 201.75 211.399 199.935 212.955 197.607C214.511 195.278 215.341 192.541 215.341 189.74C215.341 187.881 214.975 186.04 214.263 184.322C213.552 182.604 212.509 181.043 211.194 179.729C209.879 178.414 208.318 177.371 206.6 176.659C204.883 175.948 203.041 175.582 201.182 175.582Z" fill="#F3F5FD"/>
<path d="M201.182 193.114C203.045 193.114 204.555 191.603 204.555 189.74C204.555 187.877 203.045 186.367 201.182 186.367C199.319 186.367 197.809 187.877 197.809 189.74C197.809 191.603 199.319 193.114 201.182 193.114Z" fill="#F3F5FD"/>
<path d="M205.09 176.255L201.855 189.74H200.509L197.274 176.255H205.09Z" fill="#F3F5FD"/>
<path d="M197.274 203.226L200.509 189.74H201.855L205.09 203.226H197.274Z" fill="#F3F5FD"/>
<path d="M210.743 200.023L200.836 190.318L201.528 189.163L214.759 193.317L210.743 200.023Z" fill="#F3F5FD"/>
<path d="M191.621 179.459L201.528 189.163L200.836 190.318L187.605 186.164L191.621 179.459Z" fill="#F3F5FD"/>
<path d="M187.605 193.317L200.836 189.163L201.528 190.318L191.621 200.023L187.605 193.317Z" fill="#F3F5FD"/>
<path d="M214.759 186.164L201.528 190.318L200.836 189.163L210.743 179.459L214.759 186.164Z" fill="#F3F5FD"/>
<path d="M201.182 191.473C202.139 191.473 202.914 190.697 202.914 189.741C202.914 188.784 202.139 188.008 201.182 188.008C200.225 188.008 199.45 188.784 199.45 189.741C199.45 190.697 200.225 191.473 201.182 191.473Z" fill="#0D0D0D"/>
<path d="M141.038 124.792L143.375 124.7L141.089 147.855L138.752 147.947L141.038 124.792Z" fill="#C1D8ED"/>
<path d="M189.004 171.046L188.089 171.724L190.25 145.707L191.103 145.778L189.004 171.046Z" fill="#C1D8ED"/>
<path d="M191.22 130.481L193.476 131.233L192.043 145.742L189.706 145.833L191.22 130.481Z" fill="#C1D8ED"/>
<path d="M169.943 85.6282C169.94 85.5997 169.94 85.5711 169.94 85.5426C169.94 85.0233 169.96 84.4611 170.011 83.8448L165.454 82.9973C165.527 83.959 165.517 84.9252 165.423 85.885C165.406 86.0505 165.386 86.2189 165.363 86.3901C165.166 87.7854 164.718 89.255 163.734 90.0368H170.867C170.416 89.2521 169.957 87.897 169.943 85.6282Z" fill="#E98862"/>
<path d="M172.599 81.514C172.283 83.3371 171.289 85.0632 169.681 85.6515C167.772 86.3504 166.358 86.3977 164.157 86.3977C161.154 86.3977 161.253 83.2655 161.169 80.1093C161.083 76.9402 161.336 73.5412 162.523 72.4369C164.891 70.2326 171.846 71.6285 172.692 75.3152C173.129 77.2224 172.899 79.7785 172.599 81.514Z" fill="#E98862"/>
<path d="M159.559 74.2695C159.559 74.2695 158.329 73.9947 158.666 72.7683C158.889 71.9547 159.931 72.1356 159.931 72.1356C159.931 72.1356 158.944 71.9547 158.944 71.0933C158.944 70.5511 159.361 69.6312 160.62 70.1568C162.096 70.7734 163.78 70.6941 165.06 70.4789C165.784 70.3203 166.519 70.2165 167.259 70.1685H167.263C168.113 70.1536 168.961 70.267 169.778 70.5049C172.066 71.1897 175.583 73.2502 174.794 77.8934C173.94 82.9115 170.884 85.1169 170.464 85.4219C169.673 85.9966 164.814 86.1131 164.332 85.6317C163.612 84.9109 163.219 82.0132 163.366 76.9649C161.374 76.651 160.006 76.5149 160.006 76.5149C160.006 76.5149 158.351 76.5771 158.351 75.3672C158.351 74.1573 159.559 74.2695 159.559 74.2695Z" fill="#0D0D0D"/>
<path d="M161.913 80.7084C161.882 81.1679 162.033 81.6212 162.333 81.9702C162.634 82.3192 163.06 82.5359 163.519 82.5734C163.978 82.6109 164.433 82.4662 164.787 82.1706C165.14 81.875 165.362 81.4522 165.406 80.9937C165.429 80.7636 165.406 80.5312 165.337 80.3104C165.268 80.0896 165.155 79.8849 165.006 79.7085C164.856 79.5322 164.672 79.3877 164.466 79.2838C164.259 79.1799 164.034 79.1186 163.803 79.1036C162.554 79.0654 161.992 79.7436 161.913 80.7084Z" fill="#E98862"/>
<path d="M126.614 108.76L125.145 107.757C124.793 107.516 124.313 107.607 124.073 107.959L121.884 111.165C121.644 111.517 121.734 111.997 122.086 112.237L123.556 113.24C123.907 113.48 124.387 113.39 124.627 113.038L126.816 109.832C127.057 109.48 126.966 109 126.614 108.76Z" fill="#0CBC8B"/>
<path d="M127.359 108.53L125.57 108.028C125.364 107.971 125.144 107.997 124.958 108.102C124.771 108.207 124.634 108.382 124.577 108.587L124.371 109.318C124.342 109.42 124.334 109.527 124.346 109.632C124.359 109.738 124.392 109.839 124.444 109.932C124.496 110.024 124.566 110.106 124.649 110.171C124.733 110.237 124.828 110.285 124.931 110.314L125.379 110.439L126.269 110.69L126.717 110.816C126.923 110.874 127.144 110.847 127.33 110.742C127.517 110.637 127.655 110.463 127.713 110.257L127.918 109.523C127.975 109.317 127.949 109.097 127.844 108.911C127.739 108.725 127.565 108.588 127.359 108.53ZM127.173 109.13C127.157 109.187 127.123 109.239 127.075 109.275C127.027 109.311 126.968 109.33 126.908 109.329C126.884 109.329 126.86 109.326 126.837 109.321L125.604 108.975C125.54 108.958 125.486 108.917 125.449 108.862C125.413 108.807 125.398 108.74 125.407 108.675C125.416 108.61 125.449 108.55 125.499 108.506C125.548 108.463 125.612 108.439 125.678 108.439C125.702 108.439 125.726 108.442 125.749 108.448L126.985 108.796C127.019 108.805 127.052 108.821 127.08 108.843C127.108 108.865 127.132 108.892 127.149 108.923C127.167 108.954 127.178 108.988 127.182 109.024C127.186 109.059 127.183 109.095 127.173 109.13Z" fill="#1F2A37"/>
<path d="M125.958 112.155L126.234 111.172L126.14 111.146L126.588 109.546L125.699 109.297L124.428 113.836C124.395 113.953 124.41 114.08 124.47 114.186C124.53 114.293 124.63 114.372 124.748 114.405C124.806 114.421 124.867 114.426 124.928 114.419C124.988 114.412 125.046 114.393 125.099 114.363C125.152 114.333 125.199 114.294 125.237 114.246C125.274 114.198 125.302 114.143 125.318 114.085L125.482 113.501L125.575 113.527L125.806 112.704L125.712 112.678L125.866 112.128L125.958 112.155Z" fill="#1F2A37"/>
<path d="M127.758 107.487C128.003 106.597 127.691 105.736 127.062 105.563C126.432 105.39 125.724 105.971 125.479 106.86C125.235 107.749 125.546 108.611 126.176 108.784C126.805 108.957 127.513 108.376 127.758 107.487Z" stroke="#1F2A37" stroke-width="0.285346" stroke-miterlimit="10"/>
<path d="M124.74 107.252C124.74 107.252 126.983 108.407 129.402 108.407L130.184 104.536C130.184 104.536 127.885 102.461 127.057 102.675C126.373 102.852 126.853 103.512 127.467 104.126" fill="#E98862"/>
<path d="M124.74 107.252C124.74 107.252 126.983 108.407 129.402 108.407L130.184 104.536C130.184 104.536 127.885 102.461 127.057 102.675C126.373 102.852 126.853 103.512 127.467 104.126" fill="#E98862"/>
<path d="M152.385 205.234C151.753 199.921 151.753 199.374 151.753 199.195H157.745C157.745 199.176 157.745 199.153 157.745 199.125C157.767 199.568 158.069 202.274 158.337 204.526L152.385 205.234Z" fill="#E98862"/>
<path d="M176.261 205.95C176.261 205.95 176.241 199.744 176.241 199.195H182.234C182.234 199.743 182.254 205.93 182.254 205.93L176.261 205.95Z" fill="#E98862"/>
<path d="M168.977 208.267C168.816 208.267 168.656 208.232 168.509 208.167C168.362 208.102 168.229 208.008 168.12 207.889C168.011 207.77 167.927 207.631 167.875 207.478C167.822 207.326 167.801 207.164 167.814 207.004C167.831 206.781 167.912 206.568 168.046 206.39C168.181 206.211 168.363 206.075 168.572 205.997L175.547 203.661C175.682 203.616 175.825 203.601 175.967 203.617C176.108 203.633 176.245 203.679 176.367 203.752C177.325 204.417 178.472 204.757 179.639 204.722C180.547 204.658 181.419 204.339 182.156 203.803C182.22 203.75 182.299 203.716 182.382 203.706C182.465 203.696 182.549 203.709 182.625 203.745C182.7 203.781 182.764 203.838 182.809 203.909C182.853 203.979 182.877 204.062 182.877 204.145V207.557C182.877 207.657 182.857 207.757 182.818 207.85C182.78 207.943 182.723 208.027 182.652 208.098C182.581 208.169 182.496 208.225 182.403 208.264C182.31 208.302 182.21 208.321 182.11 208.321L168.977 208.267Z" fill="#C1D8ED"/>
<path d="M145.084 208.267C144.923 208.267 144.763 208.233 144.616 208.167C144.469 208.102 144.336 208.008 144.227 207.889C144.118 207.77 144.034 207.631 143.982 207.478C143.929 207.326 143.908 207.164 143.921 207.004C143.938 206.781 144.019 206.568 144.153 206.39C144.287 206.211 144.47 206.075 144.679 205.997L151.654 203.661C151.789 203.616 151.932 203.601 152.074 203.617C152.215 203.633 152.352 203.679 152.473 203.752C153.432 204.417 154.579 204.757 155.746 204.722C156.654 204.658 157.526 204.339 158.263 203.803C158.327 203.75 158.406 203.716 158.489 203.706C158.572 203.696 158.656 203.709 158.732 203.745C158.807 203.781 158.871 203.838 158.916 203.909C158.961 203.979 158.984 204.062 158.984 204.145V207.557C158.984 207.657 158.964 207.757 158.925 207.85C158.887 207.943 158.83 208.027 158.759 208.098C158.688 208.169 158.603 208.225 158.51 208.264C158.417 208.302 158.317 208.321 158.217 208.321L145.084 208.267Z" fill="#C1D8ED"/>
<path d="M173.278 203.89L183.798 203.572C182.516 183.964 178.551 120.025 178.551 120.025L156.843 121.366L156.619 122.887L156.543 122.864C154.183 135.378 152.497 148.521 150.619 161.203C150.313 163.269 150.157 165.355 150.153 167.445C150.13 179.128 150.153 192.116 150.174 203.733L160.73 203.913C160.697 191.666 161.558 178.279 161.931 165.994C163.708 156.293 164.793 146.146 166.671 136.344C168.483 156.695 171.38 184.523 173.278 203.89Z" fill="#262626"/>
<path d="M184.94 130.307C184.94 131.157 184.491 134 185.213 134.203C185.646 134.325 186.157 132.206 186.157 132.206" fill="#E98862"/>
<path d="M188.349 129.86C188.349 129.86 190.707 135.6 188.017 138.897C187.949 138.981 187.856 139.042 187.752 139.073C187.648 139.103 187.538 139.102 187.434 139.069C187.331 139.035 187.241 138.972 187.174 138.886C187.108 138.8 187.069 138.697 187.062 138.589C186.932 136.365 186.483 131.799 185.018 132.332V128.747" fill="#E98862"/>
<path d="M156.503 108.479C156.41 100.566 152.251 89.7887 161.718 89.3835C162.863 89.3341 168.454 89.3264 172.547 89.3264C175.296 89.3264 177.554 90.1702 178.857 91.4739C183.352 95.9684 177.835 103.627 177.835 109.622C177.835 115.617 180.546 118.302 180.346 121.377C180.032 126.212 156.54 125.07 155.343 122.323C154.111 119.489 156.612 117.743 156.503 108.479Z" fill="#367CFF"/>
<path d="M183.525 130.928L180.929 113.435L174.489 95.9253L180.329 93.7778L186.878 111.588C186.952 111.787 187.005 111.994 187.036 112.205L189.68 130.014L183.525 130.928Z" fill="#367CFF"/>
<path d="M147.454 113.636C147.22 113.636 146.988 113.609 146.76 113.555L128.449 109.2L129.835 103.37L146.137 107.247L156.578 91.8892L161.533 95.258L149.931 112.324C149.657 112.728 149.287 113.059 148.856 113.288C148.424 113.516 147.943 113.636 147.454 113.636Z" fill="#367CFF"/>
<path d="M128.015 104.624C128.044 104.493 128.047 104.358 128.023 104.227C127.999 104.095 127.949 103.97 127.876 103.858C127.803 103.746 127.708 103.65 127.598 103.575C127.487 103.5 127.362 103.448 127.231 103.422C126.525 103.275 125.492 103.161 125.048 103.606C124.341 104.313 123.865 106.533 124.341 107.009C124.817 107.485 126.982 108.16 127.327 107.081C127.555 106.37 127.852 105.314 128.015 104.624Z" fill="#E98862"/>
<path d="M131.447 134.798C131.421 134.871 131.374 134.935 131.311 134.981C131.248 135.026 131.172 135.051 131.094 135.052C131.017 135.053 130.941 135.03 130.876 134.986C130.812 134.942 130.763 134.88 130.736 134.807C130.582 134.357 130.335 133.944 130.011 133.595C129.54 133.164 128.976 132.847 128.364 132.667C128.29 132.642 128.225 132.595 128.179 132.533C128.133 132.47 128.107 132.395 128.105 132.317C128.103 132.239 128.125 132.162 128.168 132.097C128.211 132.032 128.273 131.982 128.345 131.954C128.932 131.733 129.47 131.401 129.931 130.976C130.275 130.577 130.538 130.116 130.706 129.617C130.733 129.543 130.783 129.479 130.849 129.435C130.914 129.391 130.991 129.368 131.07 129.37C131.149 129.372 131.225 129.398 131.288 129.446C131.351 129.493 131.398 129.559 131.422 129.634C131.568 130.172 131.818 130.676 132.16 131.116C132.584 131.534 133.106 131.84 133.678 132.006C133.753 132.031 133.817 132.08 133.863 132.144C133.909 132.208 133.933 132.285 133.933 132.364C133.933 132.443 133.908 132.52 133.862 132.584C133.816 132.648 133.75 132.696 133.676 132.722C133.103 132.895 132.576 133.194 132.131 133.595C131.817 133.94 131.583 134.351 131.447 134.798Z" fill="white"/>
<path d="M124.451 138.87C124.434 138.921 124.401 138.965 124.358 138.996C124.314 139.027 124.262 139.045 124.209 139.045C124.155 139.046 124.103 139.03 124.058 139C124.014 138.97 123.98 138.927 123.961 138.876C123.855 138.566 123.685 138.282 123.462 138.042C123.137 137.745 122.749 137.526 122.327 137.402C122.276 137.385 122.232 137.353 122.2 137.309C122.169 137.266 122.151 137.214 122.149 137.161C122.148 137.107 122.163 137.055 122.193 137.01C122.222 136.965 122.265 136.931 122.315 136.911C122.719 136.759 123.09 136.53 123.407 136.237C123.644 135.963 123.825 135.645 123.941 135.301C123.96 135.25 123.994 135.206 124.039 135.176C124.084 135.145 124.138 135.13 124.192 135.131C124.246 135.133 124.299 135.151 124.342 135.183C124.386 135.216 124.418 135.261 124.434 135.313C124.535 135.684 124.707 136.031 124.942 136.334C125.235 136.622 125.594 136.832 125.988 136.947C126.04 136.964 126.084 136.997 126.116 137.042C126.148 137.086 126.165 137.139 126.165 137.193C126.165 137.248 126.148 137.301 126.116 137.345C126.084 137.389 126.04 137.423 125.988 137.44C125.594 137.56 125.23 137.765 124.924 138.042C124.707 138.279 124.545 138.562 124.451 138.87Z" fill="white"/>
<path d="M108.99 122.385L55.3418 122.223L55.5625 49.3418L92.6593 49.4542L109.161 66.0563L108.99 122.385Z" fill="white"/>
<path opacity="0.3" d="M92.6591 49.4541L92.6089 66.006L109.161 66.0562L92.6591 49.4541Z" fill="#367CFF"/>
<path d="M109.498 66.0357C109.496 66.0058 109.491 65.9763 109.481 65.9479C109.477 65.937 109.475 65.9264 109.47 65.9154C109.454 65.8783 109.431 65.8444 109.403 65.8153L92.9015 49.2132C92.8725 49.1847 92.8386 49.1615 92.8014 49.1449C92.791 49.1405 92.7804 49.1366 92.7696 49.1333C92.741 49.1233 92.7111 49.1173 92.6808 49.1155C92.6736 49.1155 92.6671 49.1111 92.6599 49.1111L55.5635 49C55.4728 49 55.3859 49.036 55.3218 49.1001C55.2578 49.1642 55.2218 49.2511 55.2218 49.3417L55 122.221C55 122.312 55.036 122.399 55.1001 122.463C55.1642 122.527 55.2511 122.563 55.3417 122.563L108.988 122.727C109.079 122.727 109.166 122.691 109.23 122.627C109.294 122.563 109.33 122.476 109.33 122.385L109.501 66.0562C109.503 66.0497 109.499 66.0432 109.498 66.0357ZM92.9968 50.2803L100.617 57.9436L108.337 65.7111L92.9517 65.6643L92.9968 50.2803ZM55.6834 121.882L55.9021 49.6844L92.3151 49.7948L92.2663 66.0049C92.2663 66.0956 92.3023 66.1825 92.3664 66.2466C92.4304 66.3106 92.5174 66.3466 92.608 66.3466L108.818 66.3959L108.65 122.041L55.6834 121.882Z" fill="#262626"/>
</svg>
