<svg width="210" height="210" viewBox="0 0 210 210" fill="none" xmlns="http://www.w3.org/2000/svg">
<circle opacity="0.3" cx="105" cy="105" r="105" fill="#D9D9D9"/>
<path d="M145.388 91.6456C145.388 91.6456 149.335 90.6587 152.718 90.6587C154.558 90.6587 155.998 90.7447 156.93 90.8232C157.252 90.8507 157.551 91.004 157.76 91.2499C157.97 91.4958 158.075 91.8145 158.051 92.1369L157.934 93.76L145.388 91.6456Z" fill="#C1D8ED"/>
<path d="M25.9448 140.384H180.067L173.723 118.675H35.9538L25.9448 140.384Z" fill="#C1D8ED"/>
<g opacity="0.78">
<path d="M25.9448 140.384H180.067L173.723 118.675H35.9538L25.9448 140.384Z" fill="#0D0D0D"/>
</g>
<path d="M193.281 134.094C192.957 135.693 192.489 137.005 191.862 137.884C187.538 143.9 176.45 143.713 176.45 143.713C176.52 141.561 176.371 139.408 176.003 137.286C174.865 130.535 171.017 120.945 158.358 121.392C145.533 121.845 142.182 132.12 141.339 138.569C141.11 140.273 141.032 141.995 141.109 143.713H65.6539C65.5945 142.278 65.4404 140.848 65.1927 139.433C64.0393 132.509 59.9978 119.727 45.919 120.966C33.2018 122.09 30.8458 133.007 30.5647 139.296C30.4851 140.769 30.5237 142.246 30.6801 143.713C30.6801 143.713 23.5686 142.675 19.9655 141.141C19.4701 140.931 19.0273 140.614 18.6686 140.213C18.31 139.812 18.0444 139.336 17.8909 138.821L17.6181 137.913L16.1114 132.905C16.0056 132.552 15.9747 132.181 16.0206 131.815C16.0665 131.449 16.1882 131.097 16.3779 130.78L17.5313 128.864C17.3507 127.779 17.2903 126.677 17.3512 125.578C17.4524 123.338 18.0645 120.405 20.2475 118.258L20.2621 118.244C21.2975 117.249 22.5504 116.508 23.9215 116.081C34.4053 112.651 54.9326 108.796 57.3823 107.997C62.3063 106.477 67.055 104.439 71.5485 101.916C83.2557 95.3303 101.455 89.5348 115.883 89.0119C138.934 88.1758 159.713 89.581 192.612 105.368C192.612 105.368 192.662 105.728 192.741 106.369V106.376C192.964 108.185 193.419 112.227 193.721 116.881C194.095 122.746 194.218 129.576 193.281 134.094Z" fill="#DEE8F5"/>
<path d="M26.6523 120.642C26.6523 122.378 25.7589 124.835 17.3506 125.578C17.4518 123.337 18.0639 120.404 20.2469 118.257L20.2615 118.243C20.6361 118.243 26.6523 118.898 26.6523 120.642Z" fill="#D9D9D9"/>
<path d="M193.721 116.88H182.603C181.688 116.88 179.57 116.102 180.42 112.298C181.263 108.494 192.741 106.369 192.741 106.369V106.376C192.964 108.184 193.418 112.226 193.721 116.88Z" fill="#FD5D76"/>
<g opacity="0.76">
<path d="M151.606 94.7961L150.534 105.683L116.056 107.117L117.677 90.6962C118.419 90.6747 119.169 90.6602 119.925 90.6602C135.091 90.6604 143.587 92.2383 151.606 94.7961Z" fill="#0D0D0D"/>
</g>
<g opacity="0.76">
<path d="M160.887 105.273L152.19 105.619L153.206 95.3301C156.366 96.4214 159.419 97.7985 162.328 99.4442C165.051 100.986 164.014 105.151 160.887 105.273Z" fill="#0D0D0D"/>
</g>
<path d="M108.856 112.933H102.089C101.739 112.933 101.455 113.217 101.455 113.568C101.455 113.918 101.739 114.202 102.089 114.202H108.856C109.206 114.202 109.49 113.918 109.49 113.568C109.49 113.217 109.206 112.933 108.856 112.933Z" fill="#C1D8ED"/>
<path d="M30.6801 143.713C30.6801 143.713 23.5687 142.675 19.9655 141.141C19.4701 140.931 19.0273 140.614 18.6687 140.213C18.31 139.812 18.0445 139.336 17.8909 138.821L17.6182 137.913C20.1185 138.395 24.218 138.972 30.5658 139.296C30.4858 140.769 30.5241 142.246 30.6801 143.713Z" fill="#C1D8ED"/>
<path d="M141.339 138.568C141.11 140.273 141.032 141.994 141.109 143.713H65.6538C65.5944 142.277 65.4403 140.848 65.1926 139.433C89.5605 139.216 120.466 138.82 141.339 138.568Z" fill="#C1D8ED"/>
<path d="M193.281 134.093C192.957 135.692 192.489 137.004 191.862 137.883C187.539 143.899 176.45 143.712 176.45 143.712C176.52 141.56 176.371 139.407 176.003 137.285C182.747 136.637 189.722 135.628 193.281 134.093Z" fill="#C1D8ED"/>
<path d="M113.263 140.824L112.68 140.805L114.92 106.847L115.503 106.867L113.263 140.824Z" fill="#C1D8ED"/>
<path d="M69.9242 109.034H69.3394V141.14H69.9242V109.034Z" fill="#C1D8ED"/>
<g opacity="0.76">
<path d="M116.019 90.7617L114.398 107.183L69.905 109.02C69.735 109.028 69.5671 108.981 69.4267 108.884C69.2864 108.788 69.1813 108.648 69.1275 108.487C69.0737 108.326 69.074 108.151 69.1286 107.99C69.1831 107.828 69.2887 107.689 69.4295 107.594C75.6908 103.392 92.7176 91.9506 116.019 90.7617Z" fill="#0D0D0D"/>
</g>
<path d="M68.4474 107.857H71.9713C72.9995 107.857 73.9855 108.266 74.7126 108.993C75.4396 109.72 75.848 110.706 75.848 111.734C75.848 112.052 75.7218 112.356 75.4971 112.581C75.2724 112.806 74.9676 112.932 74.6499 112.932H68.4474C68.1297 112.932 67.8249 112.806 67.6002 112.581C67.3755 112.356 67.2493 112.052 67.2493 111.734V109.055C67.2493 108.738 67.3755 108.433 67.6002 108.208C67.8249 107.983 68.1297 107.857 68.4474 107.857Z" fill="#C1D8ED"/>
<path d="M47.7169 151.021C55.5593 151.021 61.9169 144.664 61.9169 136.821C61.9169 128.979 55.5593 122.621 47.7169 122.621C39.8744 122.621 33.5168 128.979 33.5168 136.821C33.5168 144.664 39.8744 151.021 47.7169 151.021Z" fill="#0D0D0D"/>
<path d="M47.7167 127.735C49.5138 127.735 51.2704 128.268 52.7646 129.266C54.2587 130.265 55.4233 131.684 56.111 133.344C56.7987 135.004 56.9786 136.831 56.628 138.593C56.2774 140.356 55.4121 141.975 54.1414 143.245C52.8707 144.516 51.2518 145.381 49.4893 145.732C47.7268 146.083 45.9 145.903 44.2398 145.215C42.5795 144.527 41.1605 143.363 40.1622 141.869C39.1638 140.374 38.6309 138.618 38.6309 136.821C38.6336 134.412 39.5918 132.102 41.2951 130.399C42.9984 128.696 45.3079 127.738 47.7167 127.735ZM47.7167 126.78C45.7308 126.78 43.7895 127.369 42.1383 128.472C40.487 129.576 39.2001 131.144 38.4401 132.979C37.6801 134.813 37.4813 136.832 37.8687 138.78C38.2562 140.728 39.2125 142.517 40.6168 143.921C42.0211 145.325 43.8102 146.282 45.758 146.669C47.7057 147.056 49.7247 146.858 51.5594 146.098C53.3941 145.338 54.9623 144.051 56.0656 142.399C57.1689 140.748 57.7578 138.807 57.7577 136.821C57.7577 135.502 57.498 134.197 56.9934 132.978C56.4888 131.76 55.7492 130.653 54.8168 129.721C53.8844 128.788 52.7775 128.049 51.5592 127.544C50.341 127.04 49.0353 126.78 47.7167 126.78Z" fill="#D9D9D9"/>
<path d="M47.717 139.213C49.0382 139.213 50.1092 138.142 50.1092 136.821C50.1092 135.5 49.0382 134.429 47.717 134.429C46.3958 134.429 45.3247 135.5 45.3247 136.821C45.3247 138.142 46.3958 139.213 47.717 139.213Z" fill="#D9D9D9"/>
<path d="M50.4883 127.257L48.1944 136.821H47.2394L44.9453 127.257H50.4883Z" fill="#D9D9D9"/>
<path d="M44.9453 146.384L47.2394 136.821H48.1944L50.4883 146.384H44.9453Z" fill="#D9D9D9"/>
<path d="M54.4971 144.113L47.4714 137.231L47.9621 136.412L57.3453 139.358L54.4971 144.113Z" fill="#D9D9D9"/>
<path d="M40.9366 129.53L47.9622 136.412L47.4715 137.231L38.0884 134.285L40.9366 129.53Z" fill="#D9D9D9"/>
<path d="M38.0884 139.358L47.4715 136.412L47.9622 137.231L40.9366 144.113L38.0884 139.358Z" fill="#D9D9D9"/>
<path d="M57.3453 134.285L47.9621 137.231L47.4714 136.412L54.4971 129.53L57.3453 134.285Z" fill="#D9D9D9"/>
<path d="M47.7168 138.05C48.3953 138.05 48.9453 137.5 48.9453 136.821C48.9453 136.143 48.3953 135.593 47.7168 135.593C47.0383 135.593 46.4883 136.143 46.4883 136.821C46.4883 137.5 47.0383 138.05 47.7168 138.05Z" fill="#0D0D0D"/>
<path d="M158.671 151.021C166.513 151.021 172.871 144.664 172.871 136.821C172.871 128.979 166.513 122.621 158.671 122.621C150.829 122.621 144.471 128.979 144.471 136.821C144.471 144.664 150.829 151.021 158.671 151.021Z" fill="#0D0D0D"/>
<path d="M158.671 127.735C160.468 127.735 162.225 128.268 163.719 129.266C165.213 130.265 166.378 131.684 167.065 133.344C167.753 135.004 167.933 136.831 167.582 138.593C167.232 140.356 166.366 141.975 165.096 143.245C163.825 144.516 162.206 145.381 160.444 145.732C158.681 146.083 156.854 145.903 155.194 145.215C153.534 144.527 152.115 143.363 151.116 141.869C150.118 140.374 149.585 138.618 149.585 136.821C149.588 134.412 150.546 132.103 152.25 130.399C153.953 128.696 156.262 127.738 158.671 127.735ZM158.671 126.78C156.685 126.78 154.744 127.369 153.093 128.472C151.441 129.576 150.154 131.144 149.394 132.979C148.634 134.813 148.436 136.832 148.823 138.78C149.211 140.728 150.167 142.517 151.571 143.921C152.975 145.325 154.765 146.282 156.712 146.669C158.66 147.056 160.679 146.858 162.514 146.098C164.348 145.338 165.917 144.051 167.02 142.399C168.123 140.748 168.712 138.807 168.712 136.821C168.712 135.502 168.452 134.197 167.948 132.978C167.443 131.76 166.704 130.653 165.771 129.721C164.839 128.788 163.732 128.049 162.514 127.544C161.295 127.04 159.99 126.78 158.671 126.78Z" fill="#D9D9D9"/>
<path d="M158.671 139.213C159.992 139.213 161.063 138.142 161.063 136.821C161.063 135.5 159.992 134.429 158.671 134.429C157.35 134.429 156.279 135.5 156.279 136.821C156.279 138.142 157.35 139.213 158.671 139.213Z" fill="#D9D9D9"/>
<path d="M161.442 127.257L159.148 136.821H158.194L155.899 127.257H161.442Z" fill="#D9D9D9"/>
<path d="M155.899 146.384L158.194 136.821H159.148L161.442 146.384H155.899Z" fill="#D9D9D9"/>
<path d="M165.451 144.113L158.426 137.231L158.917 136.412L168.3 139.358L165.451 144.113Z" fill="#D9D9D9"/>
<path d="M151.891 129.53L158.917 136.412L158.426 137.231L149.043 134.285L151.891 129.53Z" fill="#D9D9D9"/>
<path d="M149.043 139.358L158.426 136.412L158.917 137.231L151.891 144.113L149.043 139.358Z" fill="#D9D9D9"/>
<path d="M168.3 134.285L158.917 137.231L158.426 136.412L165.451 129.53L168.3 134.285Z" fill="#D9D9D9"/>
<path d="M158.671 138.05C159.349 138.05 159.899 137.5 159.899 136.821C159.899 136.143 159.349 135.593 158.671 135.593C157.992 135.593 157.442 136.143 157.442 136.821C157.442 137.5 157.992 138.05 158.671 138.05Z" fill="#0D0D0D"/>
<path d="M116.019 90.762L117.676 90.697L116.055 107.118L114.398 107.182L116.019 90.762Z" fill="#C1D8ED"/>
<path d="M150.035 123.563L149.386 124.045L150.918 105.594L151.523 105.644L150.035 123.563Z" fill="#C1D8ED"/>
<path d="M151.606 94.7964L153.206 95.3296L152.19 105.619L150.533 105.683L151.606 94.7964Z" fill="#C1D8ED"/>
<path d="M141.819 84.0601C133.779 74.8289 122.401 69.1696 110.188 68.3269C97.9755 67.4842 85.9282 71.5272 76.6963 79.5665C61.2727 92.9993 56.5331 115.332 65.1727 133.881C66.9075 137.598 69.1318 141.066 71.7865 144.193L72.3536 144.865L30.0764 189.731C29.3033 190.564 28.8908 191.668 28.9287 192.804C28.9666 193.939 29.4519 195.014 30.2789 195.793C31.1058 196.572 32.2072 196.992 33.3429 196.962C34.4787 196.933 35.5565 196.455 36.3415 195.634L78.6083 150.774L79.3144 151.303C88.4355 158.144 99.766 161.368 111.123 160.353C122.479 159.337 133.058 154.155 140.821 145.804C148.584 137.453 152.981 126.524 153.166 115.124C153.35 103.723 149.309 92.658 141.82 84.0601H141.819ZM144.47 116.96C143.815 126.439 139.592 135.318 132.651 141.806C125.71 148.295 116.567 151.912 107.066 151.927C106.189 151.927 105.308 151.896 104.425 151.833C98.2575 151.414 92.2885 149.48 87.0475 146.202C81.8064 142.924 77.4553 138.403 74.3799 133.04C71.3046 127.678 69.6 121.639 69.4174 115.46C69.2349 109.281 70.5799 103.152 73.3333 97.6175C76.0867 92.0827 80.1633 87.3129 85.2016 83.7311C90.24 80.1492 96.0844 77.866 102.216 77.0839C108.349 76.3018 114.579 77.045 120.355 79.2476C126.131 81.4501 131.275 85.044 135.329 89.7105C138.577 93.4235 141.057 97.7434 142.626 102.421C144.195 107.098 144.822 112.039 144.47 116.96Z" fill="#367CFF"/>
</svg>
