<svg width="28" height="28" viewBox="0 0 28 28" fill="none" xmlns="http://www.w3.org/2000/svg">
<g opacity="0.2">
<path d="M11.667 15.6663H16.333C18.3663 15.6663 20.3171 16.4746 21.7549 17.9124C23.1925 19.3502 24 21.3001 24 23.3333V24.0003H22.667V23.3333C22.667 21.6536 21.9993 20.0425 20.8115 18.8548C19.6238 17.6672 18.0126 17.0003 16.333 17.0003H11.667C9.98736 17.0003 8.37619 17.6672 7.18848 18.8548C6.00075 20.0425 5.33301 21.6536 5.33301 23.3333V24.0003H4V23.3333C4 21.3001 4.80754 19.3502 6.24512 17.9124C7.6829 16.4746 9.63367 15.6663 11.667 15.6663ZM14 2.83331C15.4145 2.83331 16.7713 3.39562 17.7715 4.39581C18.7714 5.3959 19.3329 6.7521 19.333 8.16632C19.333 9.22101 19.0204 10.2522 18.4346 11.1292C17.8485 12.0063 17.0155 12.6904 16.041 13.0941C15.0666 13.4977 13.9944 13.6034 12.96 13.3978C11.9254 13.192 10.9744 12.6837 10.2285 11.9378C9.48279 11.192 8.97534 10.2417 8.76953 9.20734C8.56374 8.17277 8.6686 7.09984 9.07227 6.12531C9.47594 5.15084 10.1601 4.31775 11.0371 3.73175C11.9141 3.14584 12.9453 2.83331 14 2.83331ZM15.5303 4.47101C14.7995 4.16842 13.9955 4.08918 13.2197 4.24347C12.4439 4.3978 11.7313 4.77887 11.1719 5.3382C10.6125 5.89754 10.2315 6.61023 10.0771 7.38605C9.92281 8.16197 10.0019 8.96667 10.3047 9.69757C10.6074 10.4283 11.1197 11.053 11.7773 11.4925C12.3528 11.877 13.0172 12.1046 13.7041 12.1556L14 12.1663C15.0607 12.1663 16.078 11.7454 16.8281 10.9954C17.5783 10.2453 18 9.22719 18 8.16632C17.9999 7.37544 17.7655 6.60228 17.3262 5.94464C16.8866 5.28684 16.2612 4.77376 15.5303 4.47101Z" fill="#d4d0d0ff" stroke="black"/>
</g>
</svg>
