<svg width="20" height="16" viewBox="0 0 20 16" fill="none" xmlns="http://www.w3.org/2000/svg">
<path d="M16.6716 6.84132C16.4464 6.84132 16.2303 6.92644 16.071 7.07793C15.9117 7.22943 15.8222 7.43491 15.8222 7.64916V13.304C15.8222 13.5182 15.7328 13.7237 15.5735 13.8752C15.4142 14.0267 15.1981 14.1118 14.9728 14.1118H3.08117C2.8559 14.1118 2.63985 14.0267 2.48055 13.8752C2.32126 13.7237 2.23177 13.5182 2.23177 13.304V6.84132C2.23177 6.62707 2.32126 6.4216 2.48055 6.2701C2.63985 6.1186 2.8559 6.03349 3.08117 6.03349H4.77998C4.96521 6.04269 5.14851 5.99397 5.30189 5.89478C5.45526 5.79558 5.57029 5.65137 5.62939 5.48417L6.08807 4.15932C6.14505 3.99887 6.25361 3.8595 6.39841 3.76093C6.54321 3.66236 6.71693 3.60956 6.895 3.60999H11.5752C11.8005 3.60999 12.0165 3.52488 12.1758 3.37338C12.3351 3.22189 12.4246 3.01641 12.4246 2.80216C12.4246 2.58791 12.3351 2.38243 12.1758 2.23094C12.0165 2.07944 11.8005 1.99433 11.5752 1.99433H6.85253C6.31872 1.99528 5.7987 2.15564 5.36587 2.45278C4.93304 2.74992 4.60926 3.16883 4.44022 3.65039L4.16841 4.45822H3.08117C2.40534 4.45822 1.7572 4.71355 1.27931 5.16804C0.801431 5.62254 0.532959 6.23897 0.532959 6.88172V13.3444C0.532959 13.9871 0.801431 14.6036 1.27931 15.0581C1.7572 15.5125 2.40534 15.7679 3.08117 15.7679H14.9728C15.6487 15.7679 16.2968 15.5125 16.7747 15.0581C17.2526 14.6036 17.5211 13.9871 17.5211 13.3444V7.68955C17.5268 7.58011 17.5091 7.47071 17.469 7.36799C17.4289 7.26527 17.3673 7.17138 17.2878 7.09203C17.2083 7.01269 17.1127 6.94954 17.0068 6.90644C16.9009 6.86334 16.7869 6.84119 16.6716 6.84132ZM9.02701 6.03349C8.35502 6.03349 7.69813 6.22301 7.13939 6.57807C6.58066 6.93313 6.14517 7.4378 5.88802 8.02825C5.63086 8.61869 5.56357 9.26841 5.69467 9.89522C5.82577 10.522 6.14936 11.0978 6.62453 11.5497C7.09969 12.0016 7.70509 12.3094 8.36416 12.4341C9.02324 12.5587 9.70638 12.4948 10.3272 12.2502C10.9481 12.0056 11.4787 11.5914 11.852 11.0601C12.2254 10.5287 12.4246 9.90392 12.4246 9.26482C12.4246 8.40782 12.0667 7.58592 11.4295 6.97993C10.7923 6.37393 9.92811 6.03349 9.02701 6.03349ZM9.02701 10.8805C8.69101 10.8805 8.36257 10.7857 8.0832 10.6082C7.80383 10.4307 7.58609 10.1783 7.45751 9.88311C7.32893 9.58789 7.29529 9.26303 7.36084 8.94962C7.42639 8.63621 7.58818 8.34833 7.82577 8.12238C8.06335 7.89642 8.36605 7.74254 8.69558 7.6802C9.02512 7.61786 9.3667 7.64986 9.67711 7.77214C9.98753 7.89443 10.2528 8.10151 10.4395 8.36721C10.6262 8.6329 10.7258 8.94528 10.7258 9.26482C10.7258 9.69332 10.5468 10.1043 10.2282 10.4073C9.90966 10.7103 9.47756 10.8805 9.02701 10.8805ZM18.3705 1.99433H17.5211V1.18649C17.5211 0.972244 17.4316 0.766769 17.2723 0.615271C17.113 0.463773 16.8969 0.378662 16.6716 0.378662C16.4464 0.378662 16.2303 0.463773 16.071 0.615271C15.9117 0.766769 15.8222 0.972244 15.8222 1.18649V1.99433H14.9728C14.7476 1.99433 14.5315 2.07944 14.3722 2.23094C14.2129 2.38243 14.1234 2.58791 14.1234 2.80216C14.1234 3.01641 14.2129 3.22189 14.3722 3.37338C14.5315 3.52488 14.7476 3.60999 14.9728 3.60999H15.8222V4.41783C15.8222 4.63208 15.9117 4.83755 16.071 4.98905C16.2303 5.14055 16.4464 5.22566 16.6716 5.22566C16.8969 5.22566 17.113 5.14055 17.2723 4.98905C17.4316 4.83755 17.5211 4.63208 17.5211 4.41783V3.60999H18.3705C18.5957 3.60999 18.8118 3.52488 18.9711 3.37338C19.1304 3.22189 19.2199 3.01641 19.2199 2.80216C19.2199 2.58791 19.1304 2.38243 18.9711 2.23094C18.8118 2.07944 18.5957 1.99433 18.3705 1.99433Z" fill="#0D0D0D"/>
</svg>
