<svg width="51" height="51" viewBox="0 0 51 51" fill="none" xmlns="http://www.w3.org/2000/svg">
<path d="M42.6181 34.1846C40.3929 31.7737 37.6926 29.8496 34.6872 28.5337C31.6818 27.2177 28.4365 26.5383 25.1556 26.5383C21.8747 26.5383 18.6294 27.2177 15.624 28.5337C12.6187 29.8496 9.91834 31.7737 7.69315 34.1846C7.3496 34.5645 7.15743 35.0573 7.15308 35.5694V43.8783C7.16036 44.4244 7.38242 44.9457 7.77118 45.3292C8.15995 45.7128 8.68414 45.9279 9.23029 45.9278H41.0809C41.6318 45.9278 42.1602 45.709 42.5497 45.3194C42.9393 44.9299 43.1581 44.4015 43.1581 43.8506V35.5417C43.1471 35.0392 42.9554 34.5574 42.6181 34.1846Z" fill="#0D0D0D"/>
<path d="M25.1556 23.7705C30.5092 23.7705 34.8493 19.4305 34.8493 14.0768C34.8493 8.72312 30.5092 4.38312 25.1556 4.38312C19.8019 4.38312 15.4619 8.72312 15.4619 14.0768C15.4619 19.4305 19.8019 23.7705 25.1556 23.7705Z" fill="#0D0D0D"/>
</svg>
